<?xml version="1.0" encoding="UTF-8" ?>
<!DOCTYPE svg PUBLIC "-//W3C//DTD SVG 1.1//EN" "http://www.w3.org/Graphics/SVG/1.1/DTD/svg11.dtd">
<svg width="200pt" height="200pt" viewBox="0 0 200 200" version="1.1" xmlns="http://www.w3.org/2000/svg">
<g id="#3333335d">
<path fill="#333333" opacity="0.36" d=" M 92.01 1.01 C 95.74 1.02 103.20 1.04 106.94 1.05 L 107.18 2.03 C 102.11 2.02 97.05 1.99 91.99 1.99 L 92.01 1.01 Z" />
</g>
<g id="#070708ed">
<path fill="#070708" opacity="0.93" d=" M 8.65 63.78 C 21.18 29.24 55.47 4.29 91.99 1.99 C 97.05 1.99 102.11 2.02 107.18 2.03 C 106.80 2.54 106.02 3.57 105.63 4.08 C 103.68 4.05 101.72 4.09 99.77 4.14 C 98.11 4.09 96.45 4.09 94.80 4.09 C 91.76 4.02 88.68 3.71 85.74 4.61 C 84.09 4.91 82.44 5.17 80.81 5.56 C 78.13 6.15 75.46 6.82 72.82 7.58 C 71.89 7.85 70.96 8.14 70.04 8.47 C 55.65 13.42 41.72 21.12 31.83 32.92 C 29.96 34.49 28.20 36.18 26.59 38.01 C 24.46 40.48 22.56 43.15 20.82 45.92 C 19.09 48.59 17.39 51.29 16.09 54.19 L 15.74 54.85 C 13.95 58.13 12.08 61.40 10.88 64.95 C 10.42 66.20 10.01 67.47 9.62 68.75 C 6.91 75.80 5.47 83.28 4.73 90.77 C 4.26 96.85 2.76 103.42 4.78 109.35 C 5.05 110.88 5.59 113.92 5.86 115.45 C 6.07 119.09 7.11 122.60 8.03 126.12 C 9.29 131.26 11.49 136.10 13.53 140.96 C 14.61 143.52 16.20 145.81 17.61 148.19 C 18.46 149.96 19.39 151.71 20.69 153.20 C 25.50 159.28 29.70 166.13 35.87 170.98 C 39.07 173.59 42.17 176.39 45.76 178.47 C 51.42 182.31 57.15 186.23 63.75 188.24 C 67.62 189.88 71.64 191.10 75.67 192.27 C 77.02 192.71 78.39 193.07 79.76 193.40 C 81.41 193.83 83.09 194.10 84.76 194.40 C 86.14 194.70 87.54 194.91 88.94 195.09 L 89.03 196.02 C 62.24 193.55 36.81 178.77 20.99 157.01 C 1.32 130.76 -3.81 94.22 8.65 63.78 Z" />
</g>
<g id="#03060af8">
<path fill="#03060a" opacity="0.97" d=" M 107.18 2.03 C 118.64 2.38 129.89 5.58 140.18 10.55 C 134.96 11.02 130.13 7.60 124.83 8.01 C 128.25 11.71 136.02 12.76 135.10 18.86 C 133.10 18.08 131.12 17.26 129.02 16.82 C 122.67 11.40 115.39 6.10 106.89 5.00 C 106.57 4.77 105.95 4.31 105.63 4.08 C 106.02 3.57 106.80 2.54 107.18 2.03 Z" />
</g>
<g id="#373b40ff">
<path fill="#373b40" opacity="1.00" d=" M 85.74 4.61 C 88.68 3.71 91.76 4.02 94.80 4.09 C 103.75 8.16 112.49 13.38 118.35 21.51 C 122.13 22.65 125.91 24.98 126.86 29.09 C 129.45 38.77 137.10 45.59 141.63 54.28 C 144.98 57.09 140.35 61.78 143.20 64.79 C 144.33 66.37 146.51 69.91 143.15 70.21 C 138.45 71.04 140.89 77.58 143.05 80.09 C 141.37 82.02 136.70 82.21 138.44 85.65 C 139.89 88.61 137.43 91.12 137.11 93.92 C 139.14 98.74 141.84 103.42 141.01 108.91 C 138.86 108.69 135.53 106.74 135.05 110.08 C 133.16 112.78 135.55 115.23 135.91 117.91 C 133.33 122.33 131.78 127.21 129.73 131.87 C 127.40 131.71 125.13 131.03 122.79 131.01 C 123.70 131.96 124.77 132.75 125.83 133.53 C 125.01 134.92 123.36 134.51 122.02 134.65 C 121.33 133.15 120.39 131.75 119.95 130.15 C 122.09 128.82 124.99 128.71 126.66 126.69 C 128.33 120.91 130.32 115.22 132.67 109.68 C 133.69 107.43 131.84 105.37 131.45 103.22 C 131.94 101.85 132.55 100.53 133.17 99.22 C 134.65 100.03 136.43 101.92 137.84 99.91 C 137.41 96.17 133.70 93.48 134.28 89.63 C 135.71 85.93 132.40 80.66 135.75 77.75 C 139.77 74.81 136.08 68.46 140.67 65.72 C 139.41 62.56 136.69 59.27 139.64 56.18 C 136.47 52.30 134.28 48.04 132.56 43.45 C 126.74 40.49 126.99 34.06 123.94 29.07 C 122.01 22.66 113.94 23.10 109.18 19.84 C 106.68 18.01 102.20 17.84 101.83 14.05 C 103.96 14.94 105.99 16.05 108.12 16.95 C 108.03 16.28 107.86 14.94 107.78 14.26 C 102.58 10.11 96.93 5.00 89.86 5.01 C 88.48 4.89 87.11 4.75 85.74 4.61 Z" />
</g>
<g id="#303439ff">
<path fill="#303439" opacity="1.00" d=" M 94.80 4.09 C 96.45 4.09 98.11 4.09 99.77 4.14 C 107.97 8.48 116.61 13.08 122.42 20.56 C 125.63 22.63 128.78 24.83 130.74 28.24 C 134.06 30.06 129.32 31.75 130.25 33.76 C 145.62 43.88 151.62 65.06 145.21 82.04 C 145.57 84.27 145.92 86.51 145.16 88.70 C 141.18 86.74 144.56 91.37 143.25 93.28 C 141.92 95.56 141.74 98.08 143.24 100.32 C 142.84 105.49 145.45 110.98 142.82 115.80 C 141.23 115.84 139.10 114.27 138.18 116.26 C 137.35 117.90 139.05 118.88 139.87 120.04 C 138.89 121.76 137.36 123.48 138.17 125.61 C 140.13 125.86 141.44 127.05 142.02 128.92 C 139.43 130.54 135.81 130.29 133.86 132.85 C 132.12 135.17 129.32 136.21 127.20 138.09 C 128.23 139.85 129.54 141.65 128.93 143.82 C 127.48 144.99 125.70 145.57 123.99 146.22 C 125.28 144.32 124.43 142.23 123.74 140.29 C 121.38 140.25 119.11 140.56 116.80 140.15 C 117.30 137.46 119.92 136.02 122.02 134.65 C 123.36 134.51 125.01 134.92 125.83 133.53 C 124.77 132.75 123.70 131.96 122.79 131.01 C 125.13 131.03 127.40 131.71 129.73 131.87 C 131.78 127.21 133.33 122.33 135.91 117.91 C 135.55 115.23 133.16 112.78 135.05 110.08 C 135.53 106.74 138.86 108.69 141.01 108.91 C 141.84 103.42 139.14 98.74 137.11 93.92 C 137.43 91.12 139.89 88.61 138.44 85.65 C 136.70 82.21 141.37 82.02 143.05 80.09 C 140.89 77.58 138.45 71.04 143.15 70.21 C 146.51 69.91 144.33 66.37 143.20 64.79 C 140.35 61.78 144.98 57.09 141.63 54.28 C 137.10 45.59 129.45 38.77 126.86 29.09 C 125.91 24.98 122.13 22.65 118.35 21.51 C 112.49 13.38 103.75 8.16 94.80 4.09 Z" />
</g>
<g id="#24282dff">
<path fill="#24282d" opacity="1.00" d=" M 99.77 4.14 C 101.72 4.09 103.68 4.05 105.63 4.08 C 105.95 4.31 106.57 4.77 106.89 5.00 C 112.98 8.41 119.53 11.34 124.32 16.66 C 129.49 20.14 132.43 25.78 137.11 29.78 C 134.57 32.89 137.51 36.02 139.79 38.21 C 145.54 43.65 146.39 51.96 150.49 58.43 C 151.80 72.17 151.76 85.98 150.66 99.69 C 153.14 102.41 149.11 104.91 150.49 108.01 C 149.34 112.58 150.59 116.89 151.36 121.31 C 150.77 123.79 155.19 124.14 153.85 126.74 C 150.90 129.06 147.94 131.37 145.81 134.49 C 143.97 133.59 140.49 135.19 142.82 137.17 C 146.77 140.36 144.50 145.74 142.16 149.23 C 140.91 151.47 137.96 149.77 136.12 151.17 C 136.01 153.93 139.07 155.78 139.16 158.60 C 136.07 157.20 133.51 162.94 136.10 164.63 C 137.01 164.47 137.92 164.30 138.83 164.13 C 138.78 168.20 134.54 170.15 131.78 172.39 C 131.35 172.26 130.50 172.00 130.08 171.87 C 130.45 168.91 130.71 165.88 128.75 163.36 C 127.24 163.51 125.72 163.59 124.78 162.16 C 127.85 160.44 123.30 157.46 124.86 155.08 C 126.87 154.30 128.72 153.04 130.93 152.90 C 130.64 154.49 130.19 156.05 129.97 157.66 C 132.30 157.70 135.25 157.73 136.10 155.01 C 134.67 152.24 130.05 152.15 129.27 148.71 C 127.56 145.21 133.22 143.18 135.63 143.55 C 138.31 142.91 136.33 139.71 136.26 137.86 C 135.14 135.07 138.55 133.75 139.57 131.58 C 141.95 131.05 143.69 129.45 145.70 128.22 C 146.33 120.52 147.90 112.76 145.70 105.12 C 143.89 99.97 148.18 95.26 147.96 90.18 C 147.06 89.63 146.12 89.13 145.16 88.70 C 145.92 86.51 145.57 84.27 145.21 82.04 C 151.62 65.06 145.62 43.88 130.25 33.76 C 129.32 31.75 134.06 30.06 130.74 28.24 C 128.78 24.83 125.63 22.63 122.42 20.56 C 116.61 13.08 107.97 8.48 99.77 4.14 Z" />
</g>
<g id="#4b5054ff">
<path fill="#4b5054" opacity="1.00" d=" M 80.81 5.56 C 82.44 5.17 84.09 4.91 85.74 4.61 C 87.11 4.75 88.48 4.89 89.86 5.01 C 91.92 7.04 94.22 8.79 96.60 10.44 C 97.20 11.83 96.23 13.33 96.24 14.78 C 97.34 16.00 98.53 17.26 100.08 17.90 C 108.22 21.35 116.82 25.58 121.70 33.29 C 124.70 38.18 126.59 44.01 131.09 47.83 C 133.25 52.03 131.39 56.94 133.78 61.08 C 135.40 64.82 127.22 61.26 129.99 67.04 C 127.85 72.98 128.44 79.51 125.77 85.31 C 124.86 83.89 122.05 81.76 124.21 80.27 C 127.77 77.62 125.79 72.45 122.32 70.79 C 123.88 68.81 123.88 66.56 123.25 64.23 C 126.55 62.08 128.91 58.61 127.39 54.34 C 126.67 52.22 129.76 50.63 128.38 48.65 C 121.53 37.24 111.97 27.55 101.01 20.02 C 97.54 18.28 93.92 16.77 90.95 14.21 C 90.26 14.12 88.88 13.96 88.19 13.87 C 86.57 10.38 85.24 6.16 80.81 5.56 Z" />
</g>
<g id="#3e4248ff">
<path fill="#3e4248" opacity="1.00" d=" M 89.86 5.01 C 96.93 5.00 102.58 10.11 107.78 14.26 C 107.86 14.94 108.03 16.28 108.12 16.95 C 105.99 16.05 103.96 14.94 101.83 14.05 C 102.20 17.84 106.68 18.01 109.18 19.84 C 113.94 23.10 122.01 22.66 123.94 29.07 C 126.99 34.06 126.74 40.49 132.56 43.45 C 134.28 48.04 136.47 52.30 139.64 56.18 C 136.69 59.27 139.41 62.56 140.67 65.72 C 136.08 68.46 139.77 74.81 135.75 77.75 C 132.40 80.66 135.71 85.93 134.28 89.63 C 133.70 93.48 137.41 96.17 137.84 99.91 C 136.43 101.92 134.65 100.03 133.17 99.22 C 132.55 100.53 131.94 101.85 131.45 103.22 C 131.84 105.37 133.69 107.43 132.67 109.68 C 130.32 115.22 128.33 120.91 126.66 126.69 C 124.99 128.71 122.09 128.82 119.95 130.15 C 120.39 131.75 121.33 133.15 122.02 134.65 C 119.92 136.02 117.30 137.46 116.80 140.15 C 113.88 140.73 110.86 140.94 108.12 142.18 C 108.30 146.47 109.38 150.64 109.89 154.89 C 108.47 156.74 106.82 158.40 105.36 160.22 C 102.84 161.75 106.60 163.06 105.79 164.78 C 105.21 165.81 104.34 166.20 103.17 165.95 C 101.19 163.41 100.62 160.16 99.76 157.14 C 99.33 157.37 98.46 157.84 98.02 158.08 C 98.77 155.11 99.47 152.14 100.04 149.14 C 101.29 149.62 102.32 151.12 103.76 150.82 C 105.65 148.49 108.66 145.24 104.76 143.18 C 100.09 145.17 97.60 139.95 97.77 135.99 C 100.13 135.98 102.48 135.57 104.69 134.72 C 105.49 131.90 104.30 123.48 110.91 127.01 C 113.10 128.53 114.97 130.44 117.10 132.06 C 116.42 129.28 111.27 124.12 119.92 126.88 C 121.51 127.05 122.90 124.76 120.99 123.99 C 118.30 122.46 122.57 120.79 123.23 119.25 C 125.34 118.18 124.79 115.78 125.20 113.92 L 125.41 112.92 C 127.57 111.59 131.86 111.61 131.00 108.12 C 131.24 106.27 128.32 107.36 127.23 106.72 C 126.21 102.87 125.56 98.94 124.98 95.01 C 127.69 94.87 130.40 95.48 133.08 95.86 C 133.25 93.18 131.40 91.11 129.98 89.05 C 132.04 86.88 129.78 85.05 128.04 83.72 C 131.62 79.20 132.94 73.17 133.64 67.65 C 134.27 65.98 135.94 65.15 137.08 63.90 C 136.94 61.81 134.30 59.76 135.83 57.82 C 138.83 54.02 133.55 50.38 131.09 47.83 C 126.59 44.01 124.70 38.18 121.70 33.29 C 116.82 25.58 108.22 21.35 100.08 17.90 C 98.53 17.26 97.34 16.00 96.24 14.78 C 96.23 13.33 97.20 11.83 96.60 10.44 C 94.22 8.79 91.92 7.04 89.86 5.01 Z" />
</g>
<g id="#15191eff">
<path fill="#15191e" opacity="1.00" d=" M 106.89 5.00 C 115.39 6.10 122.67 11.40 129.02 16.82 C 130.32 19.94 134.25 20.34 135.77 23.25 C 138.51 27.26 142.82 31.00 142.86 36.23 C 140.09 34.88 139.21 31.80 137.11 29.78 C 132.43 25.78 129.49 20.14 124.32 16.66 C 119.53 11.34 112.98 8.41 106.89 5.00 Z" />
</g>
<g id="#585d61ff">
<path fill="#585d61" opacity="1.00" d=" M 72.82 7.58 C 75.46 6.82 78.13 6.15 80.81 5.56 C 85.24 6.16 86.57 10.38 88.19 13.87 C 85.85 14.44 83.47 14.85 81.07 15.09 C 78.35 12.53 76.94 8.35 72.82 7.58 Z" />
</g>
<g id="#60656bff">
<path fill="#60656b" opacity="1.00" d=" M 70.04 8.47 C 70.96 8.14 71.89 7.85 72.82 7.58 C 76.94 8.35 78.35 12.53 81.07 15.09 C 83.47 14.85 85.85 14.44 88.19 13.87 C 88.88 13.96 90.26 14.12 90.95 14.21 C 89.59 15.22 87.83 16.17 88.01 18.14 C 85.89 18.59 83.49 19.04 83.77 21.80 C 82.06 20.58 80.20 19.58 78.02 19.96 C 77.60 22.44 78.20 24.52 79.82 26.20 L 79.10 26.14 C 75.99 25.76 73.72 24.25 72.76 21.24 C 66.93 19.80 60.81 20.39 54.88 20.92 C 58.08 13.84 65.84 16.69 71.82 16.90 C 74.38 15.19 71.78 13.95 70.33 12.67 C 70.19 11.27 70.25 9.86 70.04 8.47 Z" />
</g>
<g id="#040c16fd">
<path fill="#040c16" opacity="1.00" d=" M 124.83 8.01 C 130.13 7.60 134.96 11.02 140.18 10.55 C 142.73 10.69 144.84 12.79 147.09 13.85 C 170.56 26.98 189.19 50.31 194.09 76.97 C 187.14 63.33 183.62 46.22 170.13 37.02 C 169.32 37.45 166.71 40.52 167.01 38.11 C 166.24 35.75 168.54 35.98 170.14 35.68 C 169.10 34.47 167.71 33.65 166.21 33.15 C 162.92 36.83 158.85 39.91 156.00 43.92 C 158.38 47.08 159.53 50.83 160.53 54.61 C 166.66 65.60 171.63 77.25 175.96 89.01 C 175.38 91.54 175.18 93.97 176.84 96.14 C 177.01 100.94 174.96 105.56 173.18 109.95 C 173.81 111.00 175.58 111.94 174.22 113.19 C 170.91 117.63 176.36 127.40 169.50 129.32 C 170.65 132.22 168.86 133.82 166.47 135.16 C 168.03 139.64 162.44 142.41 163.09 147.00 C 163.01 151.46 160.61 154.96 158.46 158.60 C 156.95 160.18 154.84 159.07 152.99 159.04 C 152.40 161.19 154.56 160.95 156.00 161.30 C 155.18 165.70 150.15 167.94 149.34 172.46 C 145.82 176.07 144.36 181.22 140.55 184.53 C 138.56 186.39 141.97 185.99 143.11 186.13 C 138.69 188.94 133.27 191.17 128.04 192.03 C 127.26 192.01 125.70 191.96 124.91 191.94 C 126.13 190.79 128.26 190.15 128.04 188.12 C 127.25 188.03 125.66 187.86 124.86 187.77 C 125.91 186.80 126.99 185.87 128.02 184.89 C 128.27 184.67 128.76 184.23 129.00 184.01 C 133.86 180.99 136.25 175.96 140.20 172.13 C 141.93 170.86 141.13 168.57 142.22 166.95 C 145.63 165.94 145.73 161.36 148.11 159.06 C 149.49 159.98 150.73 161.10 152.11 162.04 C 152.36 159.85 150.83 158.68 149.14 157.70 C 150.41 151.34 153.86 145.60 155.12 139.21 C 160.90 131.59 157.87 121.47 160.63 113.00 C 160.32 101.50 158.85 89.80 159.39 78.39 C 155.77 72.39 158.09 64.69 154.24 58.74 C 152.61 52.83 150.65 46.78 147.06 41.75 C 145.60 39.97 143.64 38.48 142.86 36.23 C 142.82 31.00 138.51 27.26 135.77 23.25 C 134.25 20.34 130.32 19.94 129.02 16.82 C 131.12 17.26 133.10 18.08 135.10 18.86 C 136.02 12.76 128.25 11.71 124.83 8.01 Z" />
</g>
<g id="#686d73ff">
<path fill="#686d73" opacity="1.00" d=" M 31.83 32.92 C 41.72 21.12 55.65 13.42 70.04 8.47 C 70.25 9.86 70.19 11.27 70.33 12.67 C 71.78 13.95 74.38 15.19 71.82 16.90 C 65.84 16.69 58.08 13.84 54.88 20.92 C 60.81 20.39 66.93 19.80 72.76 21.24 C 73.72 24.25 75.99 25.76 79.10 26.14 C 78.06 26.76 77.00 27.34 76.02 28.05 C 74.51 29.10 72.99 30.14 71.50 31.22 L 70.74 31.18 C 71.93 28.82 67.69 25.10 67.89 28.92 C 65.51 29.10 63.73 27.52 61.92 26.25 C 62.17 25.98 62.67 25.43 62.92 25.16 C 57.29 22.14 49.20 22.46 47.16 29.87 C 47.69 30.00 48.74 30.26 49.26 30.39 L 48.77 30.92 C 46.83 30.92 42.79 33.57 42.84 30.22 C 43.79 29.26 44.84 28.35 45.16 26.97 C 43.19 27.80 41.44 29.03 39.77 30.35 C 37.10 31.13 34.52 32.21 31.83 32.92 Z" />
</g>
<g id="#52565fff">
<path fill="#52565f" opacity="1.00" d=" M 90.95 14.21 C 93.92 16.77 97.54 18.28 101.01 20.02 C 111.97 27.55 121.53 37.24 128.38 48.65 C 129.76 50.63 126.67 52.22 127.39 54.34 C 128.91 58.61 126.55 62.08 123.25 64.23 C 123.88 66.56 123.88 68.81 122.32 70.79 C 125.79 72.45 127.77 77.62 124.21 80.27 C 122.05 81.76 124.86 83.89 125.77 85.31 C 125.77 85.77 125.77 86.69 125.77 87.16 C 122.77 87.68 119.10 86.07 116.93 88.94 C 113.57 91.55 114.16 98.04 109.17 98.35 C 107.62 102.33 112.16 101.05 115.12 101.15 C 114.59 102.50 113.79 103.72 113.16 105.02 C 114.37 107.25 116.04 109.32 116.17 111.97 C 107.34 111.85 98.22 113.01 89.69 110.03 C 92.45 106.53 97.20 105.41 100.16 102.20 C 101.11 99.78 104.61 96.57 101.52 94.44 C 99.59 90.18 105.49 86.30 109.22 88.83 C 111.03 90.46 113.04 88.35 114.81 87.73 C 115.00 85.66 114.16 83.42 115.50 81.59 C 116.57 79.66 114.58 77.87 114.19 76.01 C 114.89 74.43 116.33 73.04 115.96 71.16 C 114.57 70.32 111.88 70.76 111.93 68.50 C 113.79 68.31 115.73 68.30 117.49 67.59 C 119.44 64.24 122.20 61.45 125.08 58.88 C 125.47 55.91 121.17 52.71 124.49 50.44 C 126.10 47.27 121.39 44.55 119.74 42.27 C 116.54 40.06 117.04 35.26 113.44 33.52 C 105.61 29.33 101.17 20.08 92.27 18.02 C 92.19 18.92 91.86 22.49 91.04 19.97 C 91.21 18.04 89.30 18.41 88.01 18.14 C 87.83 16.17 89.59 15.22 90.95 14.21 Z" />
</g>
<g id="#585d65ff">
<path fill="#585d65" opacity="1.00" d=" M 83.77 21.80 C 83.49 19.04 85.89 18.59 88.01 18.14 C 89.30 18.41 91.21 18.04 91.04 19.97 C 91.86 22.49 92.19 18.92 92.27 18.02 C 101.17 20.08 105.61 29.33 113.44 33.52 C 117.04 35.26 116.54 40.06 119.74 42.27 C 121.39 44.55 126.10 47.27 124.49 50.44 C 121.17 52.71 125.47 55.91 125.08 58.88 C 122.20 61.45 119.44 64.24 117.49 67.59 C 115.73 68.30 113.79 68.31 111.93 68.50 C 111.88 70.76 114.57 70.32 115.96 71.16 C 116.33 73.04 114.89 74.43 114.19 76.01 C 114.58 77.87 116.57 79.66 115.50 81.59 C 114.16 83.42 115.00 85.66 114.81 87.73 C 113.04 88.35 111.03 90.46 109.22 88.83 C 105.49 86.30 99.59 90.18 101.52 94.44 C 104.61 96.57 101.11 99.78 100.16 102.20 C 97.20 105.41 92.45 106.53 89.69 110.03 C 87.24 110.11 84.85 109.85 82.51 109.25 C 83.08 107.28 85.01 104.64 87.31 105.75 C 90.91 107.90 94.95 104.26 95.48 100.61 C 94.39 96.33 100.30 94.43 98.83 90.39 C 94.96 90.54 92.90 83.39 97.08 82.39 C 101.17 82.06 102.03 77.02 105.86 75.85 C 108.00 74.61 112.36 69.94 107.38 69.50 C 103.57 65.62 111.38 67.68 112.67 65.15 C 113.39 60.62 119.14 62.63 121.31 59.30 C 123.63 55.46 119.82 51.41 120.66 47.29 C 116.87 39.13 107.21 35.90 102.73 28.22 C 101.04 25.38 98.83 22.20 95.36 21.51 C 92.90 20.28 90.92 22.89 89.43 24.48 C 87.39 26.64 84.03 24.37 81.83 26.25 C 81.49 26.45 80.83 26.85 80.49 27.05 C 80.33 26.84 79.99 26.41 79.82 26.20 C 78.20 24.52 77.60 22.44 78.02 19.96 C 80.20 19.58 82.06 20.58 83.77 21.80 Z" />
</g>
<g id="#60656aff">
<path fill="#60656a" opacity="1.00" d=" M 89.43 24.48 C 90.92 22.89 92.90 20.28 95.36 21.51 C 98.83 22.20 101.04 25.38 102.73 28.22 C 107.21 35.90 116.87 39.13 120.66 47.29 C 119.82 51.41 123.63 55.46 121.31 59.30 C 119.14 62.63 113.39 60.62 112.67 65.15 C 111.99 64.20 111.35 63.23 110.81 62.19 C 113.25 59.44 116.68 58.67 120.10 57.91 C 119.13 56.53 116.85 53.42 116.67 56.96 C 115.44 55.96 113.71 54.99 113.97 53.14 C 115.16 52.53 116.45 52.13 117.71 51.67 C 117.96 47.08 115.91 43.37 111.47 42.46 C 107.59 37.41 102.35 32.76 95.97 31.43 C 95.91 28.92 99.77 26.28 96.82 24.18 C 94.73 21.27 91.71 24.31 90.26 26.23 C 88.53 29.25 83.64 28.96 81.83 26.25 C 84.03 24.37 87.39 26.64 89.43 24.48 Z" />
</g>
<g id="#5d6269ff">
<path fill="#5d6269" opacity="1.00" d=" M 47.16 29.87 C 49.20 22.46 57.29 22.14 62.92 25.16 C 62.67 25.43 62.17 25.98 61.92 26.25 C 57.16 25.08 53.20 28.33 49.26 30.39 C 48.74 30.26 47.69 30.00 47.16 29.87 Z" />
</g>
<g id="#676c72ff">
<path fill="#676c72" opacity="1.00" d=" M 90.26 26.23 C 91.71 24.31 94.73 21.27 96.82 24.18 C 99.77 26.28 95.91 28.92 95.97 31.43 C 102.35 32.76 107.59 37.41 111.47 42.46 C 115.91 43.37 117.96 47.08 117.71 51.67 C 116.45 52.13 115.16 52.53 113.97 53.14 C 113.71 54.99 115.44 55.96 116.67 56.96 C 116.85 53.42 119.13 56.53 120.10 57.91 C 116.68 58.67 113.25 59.44 110.81 62.19 C 109.00 63.48 107.03 64.59 104.81 64.96 C 105.72 63.38 107.80 61.82 106.39 59.89 C 106.04 58.33 103.87 56.07 106.25 55.20 C 108.47 54.88 111.40 57.12 112.10 53.05 C 113.13 51.76 115.77 49.83 114.10 47.97 C 112.62 44.71 108.22 46.07 105.42 44.69 C 103.25 36.70 94.95 32.32 87.62 29.63 C 85.15 29.36 81.49 30.05 80.49 27.05 C 80.83 26.85 81.49 26.45 81.83 26.25 C 83.64 28.96 88.53 29.25 90.26 26.23 Z" />
</g>
<g id="#878e94ff">
<path fill="#878e94" opacity="1.00" d=" M 49.26 30.39 C 53.20 28.33 57.16 25.08 61.92 26.25 C 63.73 27.52 65.51 29.10 67.89 28.92 C 68.17 29.13 68.74 29.55 69.03 29.77 C 66.80 29.85 64.85 30.79 63.21 32.25 C 59.13 32.35 55.14 31.66 51.10 31.35 C 49.44 32.36 47.90 33.65 45.95 34.06 C 46.87 32.99 47.83 31.96 48.77 30.92 L 49.26 30.39 Z" />
</g>
<g id="#6d7279ff">
<path fill="#6d7279" opacity="1.00" d=" M 79.10 26.14 L 79.82 26.20 C 79.99 26.41 80.33 26.84 80.49 27.05 C 81.49 30.05 85.15 29.36 87.62 29.63 C 94.95 32.32 103.25 36.70 105.42 44.69 C 108.22 46.07 112.62 44.71 114.10 47.97 C 115.77 49.83 113.13 51.76 112.10 53.05 C 111.40 57.12 108.47 54.88 106.25 55.20 C 103.87 56.07 106.04 58.33 106.39 59.89 C 104.79 63.03 100.83 63.95 98.06 65.90 C 97.21 64.28 96.65 62.54 95.94 60.87 C 97.62 60.98 98.31 63.63 100.00 62.06 C 103.78 60.03 98.98 55.08 102.87 53.02 C 99.10 48.93 102.70 41.49 98.25 37.80 C 94.81 36.27 91.04 34.93 87.26 35.90 C 87.36 33.09 86.20 30.13 82.81 31.01 C 80.54 30.03 78.26 29.10 76.02 28.05 C 77.00 27.34 78.06 26.76 79.10 26.14 Z" />
</g>
<g id="#899096ff">
<path fill="#899096" opacity="1.00" d=" M 39.77 30.35 C 41.44 29.03 43.19 27.80 45.16 26.97 C 44.84 28.35 43.79 29.26 42.84 30.22 C 41.83 30.51 40.79 30.69 39.77 30.35 Z" />
</g>
<g id="#737a80ff">
<path fill="#737a80" opacity="1.00" d=" M 67.89 28.92 C 67.69 25.10 71.93 28.82 70.74 31.18 L 70.77 31.84 C 68.21 32.75 65.84 34.16 63.83 35.99 C 63.50 36.29 62.85 36.89 62.53 37.19 C 61.57 36.71 60.92 35.95 60.58 34.90 C 61.44 34.00 62.32 33.13 63.21 32.25 C 64.85 30.79 66.80 29.85 69.03 29.77 C 68.74 29.55 68.17 29.13 67.89 28.92 Z" />
</g>
<g id="#787e87ff">
<path fill="#787e87" opacity="1.00" d=" M 76.02 28.05 C 78.26 29.10 80.54 30.03 82.81 31.01 C 85.47 33.02 85.70 39.15 89.90 37.13 C 91.47 38.91 93.23 40.25 95.71 40.38 C 100.54 47.12 93.87 52.43 92.54 58.57 C 88.55 61.22 84.17 63.49 80.99 67.15 C 80.73 67.54 80.19 68.32 79.92 68.71 C 77.24 69.76 78.23 66.48 77.81 64.92 C 77.21 65.64 76.62 66.37 76.05 67.11 C 75.84 61.71 81.49 59.19 85.91 57.89 C 86.96 57.40 90.33 56.72 88.25 55.31 C 87.26 54.50 86.83 53.46 86.95 52.19 C 89.62 52.77 91.91 52.34 93.83 50.90 C 93.23 49.25 93.23 46.76 91.17 46.24 C 90.09 45.90 89.01 45.54 87.95 45.15 C 86.30 39.98 75.67 45.46 78.92 36.97 C 78.56 33.35 74.95 31.02 71.50 31.22 C 72.99 30.14 74.51 29.10 76.02 28.05 Z" />
</g>
<g id="#747b83ff">
<path fill="#747b83" opacity="1.00" d=" M 31.83 32.92 C 34.52 32.21 37.10 31.13 39.77 30.35 C 40.79 30.69 41.83 30.51 42.84 30.22 C 42.79 33.57 46.83 30.92 48.77 30.92 C 47.83 31.96 46.87 32.99 45.95 34.06 L 45.22 34.31 C 42.08 34.40 37.46 34.45 37.81 38.87 C 36.65 36.89 34.74 36.60 33.00 38.11 C 31.59 33.29 28.87 41.14 26.59 38.01 C 28.20 36.18 29.96 34.49 31.83 32.92 Z" />
</g>
<g id="#1b2027ff">
<path fill="#1b2027" opacity="1.00" d=" M 137.11 29.78 C 139.21 31.80 140.09 34.88 142.86 36.23 C 143.64 38.48 145.60 39.97 147.06 41.75 C 146.58 41.83 145.62 42.00 145.14 42.08 C 148.68 49.52 152.68 57.04 153.48 65.39 C 154.62 81.58 155.23 97.78 155.01 114.02 C 152.86 117.39 156.98 120.14 156.13 123.20 C 155.15 125.37 156.69 128.07 154.88 129.92 C 151.46 134.74 151.94 141.07 149.04 146.05 C 148.12 148.75 148.96 152.47 146.15 154.13 C 142.45 157.01 140.57 161.94 140.03 166.52 C 140.76 166.66 141.49 166.81 142.22 166.95 C 141.13 168.57 141.93 170.86 140.20 172.13 C 136.25 175.96 133.86 180.99 129.00 184.01 C 128.38 179.59 130.61 175.42 134.51 173.51 C 136.46 171.47 132.83 173.16 131.78 172.39 C 134.54 170.15 138.78 168.20 138.83 164.13 C 137.92 164.30 137.01 164.47 136.10 164.63 C 133.51 162.94 136.07 157.20 139.16 158.60 C 139.07 155.78 136.01 153.93 136.12 151.17 C 137.96 149.77 140.91 151.47 142.16 149.23 C 144.50 145.74 146.77 140.36 142.82 137.17 C 140.49 135.19 143.97 133.59 145.81 134.49 C 147.94 131.37 150.90 129.06 153.85 126.74 C 155.19 124.14 150.77 123.79 151.36 121.31 C 150.59 116.89 149.34 112.58 150.49 108.01 C 149.11 104.91 153.14 102.41 150.66 99.69 C 151.76 85.98 151.80 72.17 150.49 58.43 C 146.39 51.96 145.54 43.65 139.79 38.21 C 137.51 36.02 134.57 32.89 137.11 29.78 Z" />
</g>
<g id="#979fa8ff">
<path fill="#979fa8" opacity="1.00" d=" M 45.95 34.06 C 47.90 33.65 49.44 32.36 51.10 31.35 C 55.14 31.66 59.13 32.35 63.21 32.25 C 62.32 33.13 61.44 34.00 60.58 34.90 C 59.60 35.88 58.63 36.86 57.79 37.96 C 61.10 39.31 62.47 43.52 66.27 43.83 C 67.98 43.81 68.51 45.55 68.78 46.93 C 67.21 50.02 67.37 53.66 65.76 56.74 C 63.92 58.46 61.32 58.99 59.20 60.26 C 57.24 62.30 55.70 64.69 53.78 66.76 C 52.25 66.60 50.76 66.20 49.23 66.09 C 48.73 68.39 46.61 72.04 49.91 73.14 C 50.88 72.13 51.71 71.00 52.71 70.02 C 53.14 71.00 53.56 71.98 53.98 72.96 L 53.83 73.84 C 52.51 74.11 51.20 74.43 49.90 74.80 C 45.95 75.60 42.05 77.47 40.14 81.17 C 39.40 83.19 36.14 83.91 36.87 80.87 C 36.94 79.34 37.00 77.80 36.91 76.27 C 33.22 76.67 27.29 74.79 30.85 69.68 C 33.06 70.03 35.52 69.80 37.39 71.24 C 37.85 73.20 37.79 75.41 39.15 77.02 C 44.99 76.64 45.52 69.63 47.39 65.27 C 52.29 61.91 56.59 57.71 61.74 54.73 C 64.38 53.14 62.90 48.49 60.12 47.81 C 55.65 46.20 55.14 38.58 48.96 40.95 C 46.22 40.55 44.21 42.69 42.11 44.06 C 33.41 48.48 29.20 58.74 28.81 68.09 C 28.09 67.48 27.39 66.84 26.73 66.16 C 27.49 61.80 27.64 56.99 30.43 53.34 C 32.90 50.04 34.92 46.43 36.93 42.83 C 38.11 40.86 39.31 38.90 40.66 37.04 C 40.89 40.73 45.46 36.46 45.22 34.31 L 45.95 34.06 Z" />
</g>
<g id="#7f868dff">
<path fill="#7f868d" opacity="1.00" d=" M 70.74 31.18 L 71.50 31.22 C 74.95 31.02 78.56 33.35 78.92 36.97 C 75.67 45.46 86.30 39.98 87.95 45.15 C 87.47 45.14 86.53 45.12 86.06 45.11 C 82.63 44.12 79.28 42.79 75.91 44.82 C 76.07 42.69 77.47 40.48 76.71 38.39 C 73.58 37.37 71.57 34.99 70.77 31.84 L 70.74 31.18 Z" />
</g>
<g id="#717780ff">
<path fill="#717780" opacity="1.00" d=" M 82.81 31.01 C 86.20 30.13 87.36 33.09 87.26 35.90 C 91.04 34.93 94.81 36.27 98.25 37.80 C 102.70 41.49 99.10 48.93 102.87 53.02 C 98.98 55.08 103.78 60.03 100.00 62.06 C 98.31 63.63 97.62 60.98 95.94 60.87 C 90.66 60.40 89.70 66.63 86.09 69.09 C 84.26 71.55 82.42 68.31 80.99 67.15 C 84.17 63.49 88.55 61.22 92.54 58.57 C 93.87 52.43 100.54 47.12 95.71 40.38 C 93.23 40.25 91.47 38.91 89.90 37.13 C 85.70 39.15 85.47 33.02 82.81 31.01 Z" />
</g>
<g id="#848b96ff">
<path fill="#848b96" opacity="1.00" d=" M 63.83 35.99 C 65.84 34.16 68.21 32.75 70.77 31.84 C 71.57 34.99 73.58 37.37 76.71 38.39 C 77.47 40.48 76.07 42.69 75.91 44.82 C 79.28 42.79 82.63 44.12 86.06 45.11 C 84.91 46.42 82.56 48.83 85.64 49.43 C 88.25 51.31 90.45 48.59 91.17 46.24 C 93.23 46.76 93.23 49.25 93.83 50.90 C 91.91 52.34 89.62 52.77 86.95 52.19 C 86.83 53.46 87.26 54.50 88.25 55.31 C 84.89 57.96 84.33 52.03 81.20 53.05 C 80.14 56.48 77.35 58.44 74.44 60.33 C 73.73 62.73 73.25 65.27 71.78 67.35 C 65.37 68.09 61.06 74.01 54.92 75.37 C 54.65 74.99 54.11 74.22 53.83 73.84 L 53.98 72.96 L 54.80 73.02 C 57.66 75.35 57.73 71.41 58.48 69.43 C 59.83 68.54 61.31 67.85 62.62 66.90 C 62.44 64.71 60.39 60.87 66.63 64.45 C 68.38 64.42 70.69 64.42 71.62 62.68 C 70.70 59.05 73.80 57.90 75.53 55.83 C 75.41 54.62 75.18 53.42 75.08 52.21 C 76.22 51.60 79.27 52.82 79.02 50.89 C 80.26 45.80 71.29 46.23 73.65 40.30 C 71.23 37.02 67.05 37.80 63.83 35.99 Z" />
</g>
<g id="#040f1efe">
<path fill="#040f1e" opacity="1.00" d=" M 166.21 33.15 C 167.71 33.65 169.10 34.47 170.14 35.68 C 168.54 35.98 166.24 35.75 167.01 38.11 C 166.71 40.52 169.32 37.45 170.13 37.02 C 183.62 46.22 187.14 63.33 194.09 76.97 C 196.32 81.76 196.41 87.70 197.03 93.00 C 196.99 97.00 196.99 101.00 197.02 105.00 C 196.53 117.44 193.04 129.59 187.82 140.83 L 187.28 140.63 C 185.17 139.19 183.79 142.27 182.03 143.03 C 179.52 142.25 181.57 136.43 178.11 137.02 C 176.38 140.26 176.63 145.17 172.53 146.61 C 166.69 156.20 155.50 162.29 152.42 173.56 C 150.60 175.86 149.99 178.82 148.09 181.05 C 149.41 181.06 150.74 181.06 152.07 181.04 C 149.66 183.42 146.29 185.06 143.11 186.13 C 141.97 185.99 138.56 186.39 140.55 184.53 C 144.36 181.22 145.82 176.07 149.34 172.46 C 150.15 167.94 155.18 165.70 156.00 161.30 C 154.56 160.95 152.40 161.19 152.99 159.04 C 154.84 159.07 156.95 160.18 158.46 158.60 C 160.61 154.96 163.01 151.46 163.09 147.00 C 162.44 142.41 168.03 139.64 166.47 135.16 C 168.86 133.82 170.65 132.22 169.50 129.32 C 176.36 127.40 170.91 117.63 174.22 113.19 C 175.58 111.94 173.81 111.00 173.18 109.95 C 174.96 105.56 177.01 100.94 176.84 96.14 C 175.18 93.97 175.38 91.54 175.96 89.01 C 171.63 77.25 166.66 65.60 160.53 54.61 C 159.53 50.83 158.38 47.08 156.00 43.92 C 158.85 39.91 162.92 36.83 166.21 33.15 Z" />
</g>
<g id="#7d848fff">
<path fill="#7d848f" opacity="1.00" d=" M 37.81 38.87 C 37.46 34.45 42.08 34.40 45.22 34.31 C 45.46 36.46 40.89 40.73 40.66 37.04 C 39.31 38.90 38.11 40.86 36.93 42.83 C 34.36 42.66 32.93 44.69 31.41 46.39 C 25.14 46.25 21.08 51.35 16.09 54.19 C 17.39 51.29 19.09 48.59 20.82 45.92 C 25.95 46.22 30.56 42.42 33.00 38.11 C 34.74 36.60 36.65 36.89 37.81 38.87 Z" />
</g>
<g id="#9098a3ff">
<path fill="#9098a3" opacity="1.00" d=" M 57.79 37.96 C 58.63 36.86 59.60 35.88 60.58 34.90 C 60.92 35.95 61.57 36.71 62.53 37.19 C 65.92 39.58 69.97 41.16 72.83 44.24 C 75.11 48.32 66.40 51.24 70.46 54.43 C 69.16 57.47 69.74 62.89 64.38 61.55 C 59.09 62.64 55.64 67.96 54.80 73.02 L 53.98 72.96 C 53.56 71.98 53.14 71.00 52.71 70.02 C 51.71 71.00 50.88 72.13 49.91 73.14 C 46.61 72.04 48.73 68.39 49.23 66.09 C 50.76 66.20 52.25 66.60 53.78 66.76 C 55.70 64.69 57.24 62.30 59.20 60.26 C 61.32 58.99 63.92 58.46 65.76 56.74 C 67.37 53.66 67.21 50.02 68.78 46.93 C 68.51 45.55 67.98 43.81 66.27 43.83 C 62.47 43.52 61.10 39.31 57.79 37.96 Z" />
</g>
<g id="#666b78ff">
<path fill="#666b78" opacity="1.00" d=" M 26.59 38.01 C 28.87 41.14 31.59 33.29 33.00 38.11 C 30.56 42.42 25.95 46.22 20.82 45.92 C 22.56 43.15 24.46 40.48 26.59 38.01 Z" />
</g>
<g id="#89919dff">
<path fill="#89919d" opacity="1.00" d=" M 62.53 37.19 C 62.85 36.89 63.50 36.29 63.83 35.99 C 67.05 37.80 71.23 37.02 73.65 40.30 C 71.29 46.23 80.26 45.80 79.02 50.89 C 79.27 52.82 76.22 51.60 75.08 52.21 C 75.18 53.42 75.41 54.62 75.53 55.83 C 73.80 57.90 70.70 59.05 71.62 62.68 C 70.69 64.42 68.38 64.42 66.63 64.45 C 60.39 60.87 62.44 64.71 62.62 66.90 C 61.31 67.85 59.83 68.54 58.48 69.43 C 57.73 71.41 57.66 75.35 54.80 73.02 C 55.64 67.96 59.09 62.64 64.38 61.55 C 69.74 62.89 69.16 57.47 70.46 54.43 C 66.40 51.24 75.11 48.32 72.83 44.24 C 69.97 41.16 65.92 39.58 62.53 37.19 Z" />
</g>
<g id="#a1aab2ff">
<path fill="#a1aab2" opacity="1.00" d=" M 42.11 44.06 C 44.21 42.69 46.22 40.55 48.96 40.95 C 55.14 38.58 55.65 46.20 60.12 47.81 C 62.90 48.49 64.38 53.14 61.74 54.73 C 56.59 57.71 52.29 61.91 47.39 65.27 C 45.52 69.63 44.99 76.64 39.15 77.02 C 37.79 75.41 37.85 73.20 37.39 71.24 C 35.52 69.80 33.06 70.03 30.85 69.68 C 30.16 69.17 29.48 68.64 28.81 68.09 C 29.20 58.74 33.41 48.48 42.11 44.06 M 37.32 55.31 C 33.66 56.13 33.11 60.53 31.33 63.29 C 30.14 65.47 33.53 66.35 35.04 66.85 C 41.05 62.13 38.34 70.17 41.80 68.89 C 43.09 65.80 43.98 62.53 44.17 59.17 C 50.34 62.30 48.84 57.58 48.97 54.97 C 45.13 57.14 41.35 53.61 37.32 55.31 Z" />
</g>
<g id="#131821ff">
<path fill="#131821" opacity="1.00" d=" M 145.14 42.08 C 145.62 42.00 146.58 41.83 147.06 41.75 C 150.65 46.78 152.61 52.83 154.24 58.74 C 155.95 78.75 159.42 98.79 157.34 118.91 C 158.75 125.82 155.77 132.40 155.12 139.21 C 153.86 145.60 150.41 151.34 149.14 157.70 C 150.83 158.68 152.36 159.85 152.11 162.04 C 150.73 161.10 149.49 159.98 148.11 159.06 C 145.73 161.36 145.63 165.94 142.22 166.95 C 141.49 166.81 140.76 166.66 140.03 166.52 C 140.57 161.94 142.45 157.01 146.15 154.13 C 148.96 152.47 148.12 148.75 149.04 146.05 C 151.94 141.07 151.46 134.74 154.88 129.92 C 156.69 128.07 155.15 125.37 156.13 123.20 C 156.98 120.14 152.86 117.39 155.01 114.02 C 155.23 97.78 154.62 81.58 153.48 65.39 C 152.68 57.04 148.68 49.52 145.14 42.08 Z" />
</g>
<g id="#8f97a3ff">
<path fill="#8f97a3" opacity="1.00" d=" M 31.41 46.39 C 32.93 44.69 34.36 42.66 36.93 42.83 C 34.92 46.43 32.90 50.04 30.43 53.34 C 27.64 56.99 27.49 61.80 26.73 66.16 C 24.75 64.65 23.29 61.25 20.33 62.40 C 17.73 63.63 17.12 60.30 15.78 58.80 C 15.79 57.49 15.77 56.17 15.74 54.85 L 16.09 54.19 C 21.08 51.35 25.14 46.25 31.41 46.39 Z" />
</g>
<g id="#9299a0ff">
<path fill="#9299a0" opacity="1.00" d=" M 86.06 45.11 C 86.53 45.12 87.47 45.14 87.95 45.15 C 89.01 45.54 90.09 45.90 91.17 46.24 C 90.45 48.59 88.25 51.31 85.64 49.43 C 82.56 48.83 84.91 46.42 86.06 45.11 Z" />
</g>
<g id="#44494eff">
<path fill="#44494e" opacity="1.00" d=" M 131.09 47.83 C 133.55 50.38 138.83 54.02 135.83 57.82 C 134.30 59.76 136.94 61.81 137.08 63.90 C 135.94 65.15 134.27 65.98 133.64 67.65 C 132.94 73.17 131.62 79.20 128.04 83.72 C 127.47 84.12 126.34 84.91 125.77 85.31 C 128.44 79.51 127.85 72.98 129.99 67.04 C 127.22 61.26 135.40 64.82 133.78 61.08 C 131.39 56.94 133.25 52.03 131.09 47.83 Z" />
</g>
<g id="#7b8291ff">
<path fill="#7b8291" opacity="1.00" d=" M 81.20 53.05 C 84.33 52.03 84.89 57.96 88.25 55.31 C 90.33 56.72 86.96 57.40 85.91 57.89 C 81.49 59.19 75.84 61.71 76.05 67.11 C 75.99 68.79 75.89 72.14 75.84 73.82 C 71.87 75.86 67.22 74.45 63.00 74.34 C 60.21 74.74 58.22 79.10 55.21 77.22 C 55.14 76.75 54.99 75.83 54.92 75.37 C 61.06 74.01 65.37 68.09 71.78 67.35 C 73.25 65.27 73.73 62.73 74.44 60.33 C 77.35 58.44 80.14 56.48 81.20 53.05 Z" />
</g>
<g id="#5f6473ff">
<path fill="#5f6473" opacity="1.00" d=" M 10.88 64.95 C 12.08 61.40 13.95 58.13 15.74 54.85 C 15.77 56.17 15.79 57.49 15.78 58.80 C 14.64 60.76 13.59 62.76 12.67 64.83 C 12.22 64.86 11.33 64.92 10.88 64.95 Z" />
</g>
<g id="#a8b1baff">
<path fill="#a8b1ba" opacity="1.00" d=" M 37.32 55.31 C 41.35 53.61 45.13 57.14 48.97 54.97 C 48.84 57.58 50.34 62.30 44.17 59.17 C 43.98 62.53 43.09 65.80 41.80 68.89 C 38.34 70.17 41.05 62.13 35.04 66.85 C 33.53 66.35 30.14 65.47 31.33 63.29 C 33.11 60.53 33.66 56.13 37.32 55.31 Z" />
</g>
<g id="#868d9cff">
<path fill="#868d9c" opacity="1.00" d=" M 12.67 64.83 C 13.59 62.76 14.64 60.76 15.78 58.80 C 17.12 60.30 17.73 63.63 20.33 62.40 C 23.29 61.25 24.75 64.65 26.73 66.16 C 27.39 66.84 28.09 67.48 28.81 68.09 C 29.48 68.64 30.16 69.17 30.85 69.68 C 27.29 74.79 33.22 76.67 36.91 76.27 C 37.00 77.80 36.94 79.34 36.87 80.87 C 36.02 84.50 33.87 81.05 32.11 80.04 C 30.48 81.93 30.09 85.11 27.03 85.02 C 24.09 79.10 24.42 72.34 25.00 65.96 C 24.01 66.58 23.06 67.27 22.12 67.96 C 22.06 67.20 21.93 65.69 21.87 64.94 C 18.21 65.47 16.02 69.00 13.16 71.01 C 12.69 68.98 11.99 66.90 12.67 64.83 Z" />
</g>
<g id="#0c131cff">
<path fill="#0c131c" opacity="1.00" d=" M 154.24 58.74 C 158.09 64.69 155.77 72.39 159.39 78.39 C 158.85 89.80 160.32 101.50 160.63 113.00 C 157.87 121.47 160.90 131.59 155.12 139.21 C 155.77 132.40 158.75 125.82 157.34 118.91 C 159.42 98.79 155.95 78.75 154.24 58.74 Z" />
</g>
<g id="#6a6e7dff">
<path fill="#6a6e7d" opacity="1.00" d=" M 106.39 59.89 C 107.80 61.82 105.72 63.38 104.81 64.96 C 101.92 67.00 99.76 69.84 97.34 72.26 C 98.56 69.80 97.25 67.24 94.27 68.03 C 94.58 71.43 92.19 73.56 89.69 75.38 C 90.23 78.20 88.02 80.89 84.39 79.51 C 79.99 80.58 75.64 79.19 71.25 79.19 C 69.71 80.43 68.56 82.06 67.83 83.89 C 66.72 86.78 61.27 86.93 64.47 91.55 C 65.18 93.23 66.98 94.69 66.81 96.59 C 61.74 96.99 63.01 104.22 58.83 105.39 C 56.55 104.71 54.26 104.06 51.90 103.73 C 51.11 99.78 53.31 92.63 48.02 92.01 C 44.37 92.02 44.87 85.64 47.97 84.96 C 49.44 85.85 50.57 87.21 52.08 88.02 C 54.05 88.10 55.19 85.99 56.80 85.12 C 59.69 88.13 60.54 92.77 64.05 95.12 C 62.67 90.33 60.15 85.93 58.92 81.09 C 61.50 79.28 64.51 78.47 67.60 78.35 C 71.99 75.88 77.20 78.28 81.92 76.85 C 81.43 74.11 81.74 70.97 79.92 68.71 C 80.19 68.32 80.73 67.54 80.99 67.15 C 82.42 68.31 84.26 71.55 86.09 69.09 C 89.70 66.63 90.66 60.40 95.94 60.87 C 96.65 62.54 97.21 64.28 98.06 65.90 C 100.83 63.95 104.79 63.03 106.39 59.89 Z" />
</g>
<g id="#626773ff">
<path fill="#626773" opacity="1.00" d=" M 104.81 64.96 C 107.03 64.59 109.00 63.48 110.81 62.19 C 111.35 63.23 111.99 64.20 112.67 65.15 C 111.38 67.68 103.57 65.62 107.38 69.50 C 112.36 69.94 108.00 74.61 105.86 75.85 C 102.03 77.02 101.17 82.06 97.08 82.39 C 95.91 80.67 94.98 78.80 93.76 77.12 C 92.18 76.41 91.27 77.91 91.58 79.31 C 92.26 83.21 86.80 84.26 86.92 88.01 C 88.88 87.86 90.77 87.06 92.75 87.18 C 94.41 88.32 95.38 89.99 95.03 92.05 C 92.55 92.57 91.43 89.43 88.94 89.95 C 88.76 91.75 90.38 92.55 91.51 93.59 C 92.00 95.91 92.87 98.23 93.06 100.62 C 87.81 102.00 84.14 96.27 79.08 97.55 C 74.76 94.56 68.40 95.57 70.92 102.65 C 67.39 100.81 65.78 104.16 63.87 106.51 C 62.19 106.15 60.49 105.87 58.83 105.39 C 63.01 104.22 61.74 96.99 66.81 96.59 C 66.98 94.69 65.18 93.23 64.47 91.55 C 61.27 86.93 66.72 86.78 67.83 83.89 C 68.56 82.06 69.71 80.43 71.25 79.19 C 75.64 79.19 79.99 80.58 84.39 79.51 C 88.02 80.89 90.23 78.20 89.69 75.38 C 92.19 73.56 94.58 71.43 94.27 68.03 C 97.25 67.24 98.56 69.80 97.34 72.26 C 99.76 69.84 101.92 67.00 104.81 64.96 Z" />
</g>
<g id="#7a8192ff">
<path fill="#7a8192" opacity="1.00" d=" M 10.88 64.95 C 11.33 64.92 12.22 64.86 12.67 64.83 C 11.99 66.90 12.69 68.98 13.16 71.01 C 16.02 69.00 18.21 65.47 21.87 64.94 C 21.93 65.69 22.06 67.20 22.12 67.96 C 20.35 69.67 18.45 71.22 16.35 72.51 C 16.37 75.60 16.50 78.70 16.30 81.78 C 17.48 82.16 18.68 82.52 19.89 82.79 C 21.87 81.08 20.23 78.29 20.41 76.01 C 20.78 73.28 21.60 70.65 22.12 67.96 C 23.06 67.27 24.01 66.58 25.00 65.96 C 24.42 72.34 24.09 79.10 27.03 85.02 C 26.85 85.27 26.49 85.77 26.31 86.02 C 25.17 84.23 24.07 86.05 22.94 86.78 C 20.29 86.34 16.91 87.06 15.19 84.72 C 14.65 80.79 14.55 76.84 14.98 72.91 C 13.81 74.06 13.20 76.32 11.18 75.98 C 9.72 73.93 9.19 71.52 9.62 68.75 C 10.01 67.47 10.42 66.20 10.88 64.95 Z" />
</g>
<g id="#727687ff">
<path fill="#727687" opacity="1.00" d=" M 76.05 67.11 C 76.62 66.37 77.21 65.64 77.81 64.92 C 78.23 66.48 77.24 69.76 79.92 68.71 C 81.74 70.97 81.43 74.11 81.92 76.85 C 77.20 78.28 71.99 75.88 67.60 78.35 C 64.51 78.47 61.50 79.28 58.92 81.09 C 60.15 85.93 62.67 90.33 64.05 95.12 C 60.54 92.77 59.69 88.13 56.80 85.12 C 55.19 85.99 54.05 88.10 52.08 88.02 C 50.57 87.21 49.44 85.85 47.97 84.96 C 44.87 85.64 44.37 92.02 48.02 92.01 C 53.31 92.63 51.11 99.78 51.90 103.73 C 50.46 104.89 47.38 107.46 49.96 109.00 C 53.25 109.71 53.76 113.13 54.12 115.98 C 51.58 114.92 49.17 113.59 46.81 112.18 C 48.26 112.06 49.72 111.94 51.18 111.82 C 49.92 111.04 48.60 110.35 47.34 109.57 C 46.35 107.37 48.91 104.15 46.97 102.15 C 45.46 102.91 44.08 104.18 42.27 104.04 C 43.75 100.46 41.06 99.43 39.29 97.76 C 41.23 94.85 42.42 91.57 43.37 88.22 C 44.46 84.07 48.91 82.02 50.10 78.01 C 51.81 79.35 54.09 79.21 55.21 77.22 C 58.22 79.10 60.21 74.74 63.00 74.34 C 67.22 74.45 71.87 75.86 75.84 73.82 C 75.89 72.14 75.99 68.79 76.05 67.11 Z" />
</g>
<g id="#838a9cff">
<path fill="#838a9c" opacity="1.00" d=" M 16.35 72.51 C 18.45 71.22 20.35 69.67 22.12 67.96 C 21.60 70.65 20.78 73.28 20.41 76.01 C 20.23 78.29 21.87 81.08 19.89 82.79 C 18.68 82.52 17.48 82.16 16.30 81.78 C 16.50 78.70 16.37 75.60 16.35 72.51 Z" />
</g>
<g id="#71778aff">
<path fill="#71778a" opacity="1.00" d=" M 4.73 90.77 C 5.47 83.28 6.91 75.80 9.62 68.75 C 9.19 71.52 9.72 73.93 11.18 75.98 C 13.20 76.32 13.81 74.06 14.98 72.91 C 14.55 76.84 14.65 80.79 15.19 84.72 C 16.91 87.06 20.29 86.34 22.94 86.78 C 24.07 86.05 25.17 84.23 26.31 86.02 L 25.93 86.89 C 23.98 90.24 24.07 96.03 19.17 96.39 C 19.60 100.83 20.90 105.78 23.88 109.34 C 19.31 110.47 17.43 105.07 18.19 101.45 C 14.99 97.17 16.08 91.27 13.15 86.86 C 12.46 85.10 15.76 79.98 12.44 81.32 C 11.79 84.10 8.64 85.88 8.96 88.87 C 9.94 89.98 11.12 90.89 12.12 91.97 C 10.76 91.81 9.41 91.56 8.06 91.36 C 7.81 92.69 7.43 94.03 7.57 95.40 C 11.50 109.70 2.47 87.83 5.83 102.92 C 5.63 104.28 5.24 106.99 5.04 108.34 C 5.10 102.48 4.93 96.62 4.73 90.77 Z" />
</g>
<g id="#0b0b0dff">
<path fill="#0b0b0d" opacity="1.00" d=" M 49.90 74.80 C 51.20 74.43 52.51 74.11 53.83 73.84 C 54.11 74.22 54.65 74.99 54.92 75.37 C 54.99 75.83 55.14 76.75 55.21 77.22 C 54.09 79.21 51.81 79.35 50.10 78.01 L 49.99 76.86 C 49.97 76.35 49.92 75.32 49.90 74.80 Z" />
</g>
<g id="#8e96a6ff">
<path fill="#8e96a6" opacity="1.00" d=" M 40.14 81.17 C 42.05 77.47 45.95 75.60 49.90 74.80 C 49.92 75.32 49.97 76.35 49.99 76.86 C 44.09 79.19 38.58 83.99 35.79 89.80 C 34.92 90.82 33.56 90.92 32.35 91.24 C 31.94 89.54 32.33 87.41 30.83 86.17 C 29.19 86.34 27.57 86.70 25.93 86.89 L 26.31 86.02 C 26.49 85.77 26.85 85.27 27.03 85.02 C 30.09 85.11 30.48 81.93 32.11 80.04 C 33.87 81.05 36.02 84.50 36.87 80.87 C 36.14 83.91 39.40 83.19 40.14 81.17 Z" />
</g>
<g id="#787e91ff">
<path fill="#787e91" opacity="1.00" d=" M 35.79 89.80 C 38.58 83.99 44.09 79.19 49.99 76.86 L 50.10 78.01 C 48.91 82.02 44.46 84.07 43.37 88.22 C 42.42 91.57 41.23 94.85 39.29 97.76 C 41.06 99.43 43.75 100.46 42.27 104.04 C 44.08 104.18 45.46 102.91 46.97 102.15 C 48.91 104.15 46.35 107.37 47.34 109.57 C 48.60 110.35 49.92 111.04 51.18 111.82 C 49.72 111.94 48.26 112.06 46.81 112.18 C 46.46 112.22 45.77 112.30 45.42 112.35 C 44.64 114.96 42.67 116.89 40.98 118.94 C 38.53 118.88 35.76 120.18 33.62 118.46 C 32.52 117.59 31.84 119.64 30.92 120.01 C 29.79 119.01 28.74 117.91 27.78 116.75 C 29.23 116.79 30.68 116.91 32.13 116.91 C 34.45 116.91 35.67 114.20 38.00 114.01 C 40.39 112.95 45.07 112.79 43.98 109.09 C 42.93 106.78 40.28 105.19 37.87 104.38 C 34.97 106.55 32.43 109.66 28.17 106.89 C 24.96 102.48 29.14 99.44 28.33 95.38 C 29.47 94.90 30.92 94.74 31.28 93.33 C 31.55 92.80 32.08 91.76 32.35 91.24 C 33.56 90.92 34.92 90.82 35.79 89.80 Z" />
</g>
<g id="#5c606dff">
<path fill="#5c606d" opacity="1.00" d=" M 91.58 79.31 C 91.27 77.91 92.18 76.41 93.76 77.12 C 94.98 78.80 95.91 80.67 97.08 82.39 C 92.90 83.39 94.96 90.54 98.83 90.39 C 100.30 94.43 94.39 96.33 95.48 100.61 C 94.95 104.26 90.91 107.90 87.31 105.75 C 85.01 104.64 83.08 107.28 82.51 109.25 C 76.30 108.27 69.98 108.03 63.87 106.51 C 65.78 104.16 67.39 100.81 70.92 102.65 C 68.40 95.57 74.76 94.56 79.08 97.55 C 84.14 96.27 87.81 102.00 93.06 100.62 C 92.87 98.23 92.00 95.91 91.51 93.59 C 90.38 92.55 88.76 91.75 88.94 89.95 C 91.43 89.43 92.55 92.57 95.03 92.05 C 95.38 89.99 94.41 88.32 92.75 87.18 C 90.77 87.06 88.88 87.86 86.92 88.01 C 86.80 84.26 92.26 83.21 91.58 79.31 Z" />
</g>
<g id="#686d7eff">
<path fill="#686d7e" opacity="1.00" d=" M 12.44 81.32 C 15.76 79.98 12.46 85.10 13.15 86.86 C 16.08 91.27 14.99 97.17 18.19 101.45 C 17.43 105.07 19.31 110.47 23.88 109.34 C 25.14 111.26 27.58 112.48 27.91 114.91 L 26.94 115.47 C 25.56 115.54 24.17 115.49 22.79 115.44 C 23.94 117.92 27.02 119.12 26.47 122.53 C 28.17 123.11 29.98 125.26 31.79 123.87 C 34.06 122.54 36.00 125.57 37.03 127.26 C 35.43 126.62 33.80 125.98 32.05 125.93 C 32.20 127.93 33.29 130.26 30.96 131.39 C 27.64 129.81 25.36 126.93 24.57 123.35 C 23.92 119.67 19.90 118.92 16.78 118.77 C 17.38 113.52 13.38 109.94 12.66 105.11 C 12.27 105.09 11.49 105.05 11.09 105.03 C 9.18 108.42 7.66 112.00 5.86 115.45 C 5.59 113.92 5.05 110.88 4.78 109.35 L 5.04 108.34 C 5.24 106.99 5.63 104.28 5.83 102.92 C 2.47 87.83 11.50 109.70 7.57 95.40 C 7.43 94.03 7.81 92.69 8.06 91.36 C 9.41 91.56 10.76 91.81 12.12 91.97 C 11.12 90.89 9.94 89.98 8.96 88.87 C 8.64 85.88 11.79 84.10 12.44 81.32 Z" />
</g>
<g id="#040505ff">
<path fill="#040505" opacity="1.00" d=" M 125.77 85.31 C 126.34 84.91 127.47 84.12 128.04 83.72 C 129.78 85.05 132.04 86.88 129.98 89.05 C 129.52 89.10 128.60 89.19 128.13 89.24 C 126.79 89.13 126.00 88.44 125.77 87.16 C 125.77 86.69 125.77 85.77 125.77 85.31 Z" />
</g>
<g id="#a5adbfff">
<path fill="#a5adbf" opacity="1.00" d=" M 25.93 86.89 C 27.57 86.70 29.19 86.34 30.83 86.17 C 32.33 87.41 31.94 89.54 32.35 91.24 C 32.08 91.76 31.55 92.80 31.28 93.33 C 29.60 93.76 27.87 94.10 26.13 93.96 C 25.44 91.64 25.53 89.25 25.93 86.89 Z" />
</g>
<g id="#7f8598ff">
<path fill="#7f8598" opacity="1.00" d=" M 19.17 96.39 C 24.07 96.03 23.98 90.24 25.93 86.89 C 25.53 89.25 25.44 91.64 26.13 93.96 C 27.87 94.10 29.60 93.76 31.28 93.33 C 30.92 94.74 29.47 94.90 28.33 95.38 C 29.14 99.44 24.96 102.48 28.17 106.89 C 32.43 109.66 34.97 106.55 37.87 104.38 C 40.28 105.19 42.93 106.78 43.98 109.09 C 45.07 112.79 40.39 112.95 38.00 114.01 C 35.67 114.20 34.45 116.91 32.13 116.91 C 31.73 115.65 31.31 114.41 30.84 113.18 C 29.84 113.72 28.90 114.35 27.91 114.91 C 27.58 112.48 25.14 111.26 23.88 109.34 C 20.90 105.78 19.60 100.83 19.17 96.39 Z" />
</g>
<g id="#4b4f58ff">
<path fill="#4b4f58" opacity="1.00" d=" M 116.93 88.94 C 119.10 86.07 122.77 87.68 125.77 87.16 C 126.00 88.44 126.79 89.13 128.13 89.24 C 128.02 90.91 127.51 93.73 125.18 92.91 C 122.93 89.99 115.58 90.69 115.97 95.00 C 115.43 97.79 118.99 98.04 120.61 99.44 C 120.35 103.59 122.72 107.85 121.01 111.89 C 119.40 111.94 117.78 111.97 116.17 111.97 C 116.04 109.32 114.37 107.25 113.16 105.02 C 113.79 103.72 114.59 102.50 115.12 101.15 C 112.16 101.05 107.62 102.33 109.17 98.35 C 114.16 98.04 113.57 91.55 116.93 88.94 Z" />
</g>
<g id="#2a2e34ff">
<path fill="#2a2e34" opacity="1.00" d=" M 143.25 93.28 C 144.56 91.37 141.18 86.74 145.16 88.70 C 146.12 89.13 147.06 89.63 147.96 90.18 C 148.18 95.26 143.89 99.97 145.70 105.12 C 147.90 112.76 146.33 120.52 145.70 128.22 C 143.69 129.45 141.95 131.05 139.57 131.58 C 138.55 133.75 135.14 135.07 136.26 137.86 C 136.33 139.71 138.31 142.91 135.63 143.55 C 133.22 143.18 127.56 145.21 129.27 148.71 C 130.05 152.15 134.67 152.24 136.10 155.01 C 135.25 157.73 132.30 157.70 129.97 157.66 C 130.19 156.05 130.64 154.49 130.93 152.90 C 128.72 153.04 126.87 154.30 124.86 155.08 C 125.25 152.47 128.52 151.08 127.98 148.26 C 126.50 147.75 123.81 148.56 123.99 146.22 C 125.70 145.57 127.48 144.99 128.93 143.82 C 129.54 141.65 128.23 139.85 127.20 138.09 C 129.32 136.21 132.12 135.17 133.86 132.85 C 135.81 130.29 139.43 130.54 142.02 128.92 C 141.44 127.05 140.13 125.86 138.17 125.61 C 137.36 123.48 138.89 121.76 139.87 120.04 C 139.05 118.88 137.35 117.90 138.18 116.26 C 139.10 114.27 141.23 115.84 142.82 115.80 C 145.45 110.98 142.84 105.49 143.24 100.32 C 141.74 98.08 141.92 95.56 143.25 93.28 Z" />
</g>
<g id="#444851ff">
<path fill="#444851" opacity="1.00" d=" M 128.13 89.24 C 128.60 89.19 129.52 89.10 129.98 89.05 C 131.40 91.11 133.25 93.18 133.08 95.86 C 130.40 95.48 127.69 94.87 124.98 95.01 C 125.56 98.94 126.21 102.87 127.23 106.72 C 128.32 107.36 131.24 106.27 131.00 108.12 C 131.86 111.61 127.57 111.59 125.41 112.92 C 124.06 112.15 122.51 112.03 121.01 111.89 C 122.72 107.85 120.35 103.59 120.61 99.44 C 118.99 98.04 115.43 97.79 115.97 95.00 C 115.58 90.69 122.93 89.99 125.18 92.91 C 127.51 93.73 128.02 90.91 128.13 89.24 Z" />
</g>
<g id="#40444eff">
<path fill="#40444e" opacity="1.00" d=" M 4.78 109.35 C 2.76 103.42 4.26 96.85 4.73 90.77 C 4.93 96.62 5.10 102.48 5.04 108.34 L 4.78 109.35 Z" />
</g>
<g id="#1d1d1d23">
<path fill="#1d1d1d" opacity="0.14" d=" M 197.03 93.00 L 197.99 93.00 C 196.82 96.10 200.07 103.57 197.02 105.00 C 196.99 101.00 196.99 97.00 197.03 93.00 Z" />
</g>
<g id="#696c7cff">
<path fill="#696c7c" opacity="1.00" d=" M 49.96 109.00 C 47.38 107.46 50.46 104.89 51.90 103.73 C 51.80 108.41 58.91 106.56 62.02 108.09 C 62.80 110.30 62.18 113.26 64.32 114.69 C 66.53 115.81 69.22 116.21 70.87 118.24 C 70.91 119.86 70.99 123.09 71.04 124.71 C 66.98 123.57 60.87 123.25 59.18 128.12 C 58.39 131.20 55.29 132.29 52.95 133.94 C 50.81 132.97 49.51 133.28 49.79 135.90 C 47.36 134.65 44.08 133.70 42.97 131.01 C 43.86 126.07 50.71 127.79 52.85 123.83 C 54.25 121.63 56.80 120.93 59.01 119.86 C 57.62 118.19 55.19 117.54 53.14 116.96 C 51.52 118.48 52.97 122.33 50.04 122.11 C 45.25 122.04 42.42 126.46 39.00 129.15 C 38.29 128.58 37.63 127.95 37.03 127.26 C 38.28 126.56 41.81 125.60 40.16 123.78 C 38.78 122.26 40.69 120.53 40.98 118.94 C 42.67 116.89 44.64 114.96 45.42 112.35 C 45.77 112.30 46.46 112.22 46.81 112.18 C 49.17 113.59 51.58 114.92 54.12 115.98 C 53.76 113.13 53.25 109.71 49.96 109.00 Z" />
</g>
<g id="#09090aff">
<path fill="#09090a" opacity="1.00" d=" M 51.90 103.73 C 54.26 104.06 56.55 104.71 58.83 105.39 C 60.49 105.87 62.19 106.15 63.87 106.51 C 69.98 108.03 76.30 108.27 82.51 109.25 C 84.85 109.85 87.24 110.11 89.69 110.03 C 98.22 113.01 107.34 111.85 116.17 111.97 C 117.78 111.97 119.40 111.94 121.01 111.89 C 122.51 112.03 124.06 112.15 125.41 112.92 L 125.20 113.92 C 124.44 113.96 122.91 114.02 122.15 114.05 C 113.69 113.99 105.23 113.97 96.78 114.04 C 90.84 112.84 84.85 111.93 78.86 111.07 C 73.16 110.44 67.38 110.29 62.02 108.09 C 58.91 106.56 51.80 108.41 51.90 103.73 Z" />
</g>
<g id="#5c6171ff">
<path fill="#5c6171" opacity="1.00" d=" M 11.09 105.03 C 11.49 105.05 12.27 105.09 12.66 105.11 C 13.38 109.94 17.38 113.52 16.78 118.77 C 13.21 120.36 11.69 124.49 8.03 126.12 C 7.11 122.60 6.07 119.09 5.86 115.45 C 7.66 112.00 9.18 108.42 11.09 105.03 Z" />
</g>
<g id="#5b5e6bff">
<path fill="#5b5e6b" opacity="1.00" d=" M 62.02 108.09 C 67.38 110.29 73.16 110.44 78.86 111.07 C 79.80 115.00 83.70 114.59 86.25 116.64 C 82.74 117.01 79.43 118.17 76.13 119.31 C 75.59 121.13 77.13 122.45 77.87 123.94 C 76.53 124.72 74.83 124.92 73.71 126.05 C 75.50 127.42 77.79 128.12 79.21 129.96 C 75.91 130.39 72.55 129.12 70.59 126.40 C 67.84 123.53 64.32 126.40 61.43 127.44 C 63.24 134.69 54.24 133.03 53.17 138.26 C 52.78 139.76 51.02 138.16 50.05 138.20 C 51.19 136.91 52.15 135.47 52.95 133.94 C 55.29 132.29 58.39 131.20 59.18 128.12 C 60.87 123.25 66.98 123.57 71.04 124.71 C 70.99 123.09 70.91 119.86 70.87 118.24 C 69.22 116.21 66.53 115.81 64.32 114.69 C 62.18 113.26 62.80 110.30 62.02 108.09 Z" />
</g>
<g id="#545863ff">
<path fill="#545863" opacity="1.00" d=" M 78.86 111.07 C 84.85 111.93 90.84 112.84 96.78 114.04 C 97.96 117.00 99.34 119.86 100.21 122.94 C 104.27 120.10 107.25 115.44 113.02 116.96 C 112.97 117.38 112.85 118.22 112.80 118.64 C 108.25 119.42 104.97 122.80 101.90 125.97 C 97.88 124.90 92.68 124.58 90.23 120.85 C 90.11 118.36 87.25 118.75 85.78 119.81 C 83.15 121.56 79.93 120.19 77.07 119.97 C 78.27 121.73 79.32 123.61 79.70 125.74 C 82.88 125.71 86.79 126.30 88.63 129.27 C 88.75 130.77 88.79 132.28 88.87 133.79 C 86.71 133.13 84.60 132.26 82.37 131.86 C 83.36 134.23 81.70 135.90 80.29 137.59 C 84.68 138.67 76.79 142.18 82.10 142.20 C 80.51 142.77 79.56 144.09 80.09 145.82 C 82.36 147.43 84.85 145.84 87.09 145.04 C 87.01 149.83 82.86 153.17 78.14 151.86 C 75.32 150.21 72.30 153.47 69.18 152.14 C 69.21 152.58 69.27 153.46 69.29 153.91 C 67.03 155.17 64.69 156.39 62.17 157.07 C 62.96 154.40 61.63 151.76 61.30 149.10 C 62.64 147.59 64.66 147.04 66.32 145.99 C 64.52 144.70 62.39 141.99 60.87 144.96 C 57.15 143.28 53.92 139.17 48.92 141.00 C 49.67 143.03 50.79 144.92 51.21 147.07 C 47.24 146.95 45.60 141.40 49.01 139.23 C 49.27 138.98 49.79 138.46 50.05 138.20 C 51.02 138.16 52.78 139.76 53.17 138.26 C 54.24 133.03 63.24 134.69 61.43 127.44 C 64.32 126.40 67.84 123.53 70.59 126.40 C 72.55 129.12 75.91 130.39 79.21 129.96 C 77.79 128.12 75.50 127.42 73.71 126.05 C 74.83 124.92 76.53 124.72 77.87 123.94 C 77.13 122.45 75.59 121.13 76.13 119.31 C 79.43 118.17 82.74 117.01 86.25 116.64 C 83.70 114.59 79.80 115.00 78.86 111.07 Z" />
</g>
<g id="#a2a9b8ff">
<path fill="#a2a9b8" opacity="1.00" d=" M 27.91 114.91 C 28.90 114.35 29.84 113.72 30.84 113.18 C 31.31 114.41 31.73 115.65 32.13 116.91 C 30.68 116.91 29.23 116.79 27.78 116.75 C 27.57 116.43 27.15 115.79 26.94 115.47 L 27.91 114.91 Z" />
</g>
<g id="#4d515bff">
<path fill="#4d515b" opacity="1.00" d=" M 96.78 114.04 C 105.23 113.97 113.69 113.99 122.15 114.05 C 122.37 117.47 119.22 119.48 116.41 120.53 C 111.34 123.31 105.75 125.39 101.70 129.66 C 100.40 129.65 99.14 129.30 97.85 129.16 C 98.33 131.00 99.85 132.24 100.85 133.78 C 99.84 134.54 98.77 135.22 97.77 135.99 C 96.04 136.82 96.43 139.27 94.89 140.12 C 91.63 138.57 91.14 132.94 86.17 135.07 C 84.53 136.95 83.90 139.39 83.88 141.84 C 83.43 141.93 82.54 142.11 82.10 142.20 C 76.79 142.18 84.68 138.67 80.29 137.59 C 81.70 135.90 83.36 134.23 82.37 131.86 C 84.60 132.26 86.71 133.13 88.87 133.79 C 88.79 132.28 88.75 130.77 88.63 129.27 C 86.79 126.30 82.88 125.71 79.70 125.74 C 79.32 123.61 78.27 121.73 77.07 119.97 C 79.93 120.19 83.15 121.56 85.78 119.81 C 87.25 118.75 90.11 118.36 90.23 120.85 C 92.68 124.58 97.88 124.90 101.90 125.97 C 104.97 122.80 108.25 119.42 112.80 118.64 C 112.85 118.22 112.97 117.38 113.02 116.96 C 107.25 115.44 104.27 120.10 100.21 122.94 C 99.34 119.86 97.96 117.00 96.78 114.04 Z" />
</g>
<g id="#434750ff">
<path fill="#434750" opacity="1.00" d=" M 122.15 114.05 C 122.91 114.02 124.44 113.96 125.20 113.92 C 124.79 115.78 125.34 118.18 123.23 119.25 C 122.57 120.79 118.30 122.46 120.99 123.99 C 122.90 124.76 121.51 127.05 119.92 126.88 C 111.27 124.12 116.42 129.28 117.10 132.06 C 114.97 130.44 113.10 128.53 110.91 127.01 C 104.30 123.48 105.49 131.90 104.69 134.72 C 102.48 135.57 100.13 135.98 97.77 135.99 C 98.77 135.22 99.84 134.54 100.85 133.78 C 99.85 132.24 98.33 131.00 97.85 129.16 C 99.14 129.30 100.40 129.65 101.70 129.66 C 105.75 125.39 111.34 123.31 116.41 120.53 C 119.22 119.48 122.37 117.47 122.15 114.05 Z" />
</g>
<g id="#6f7485ff">
<path fill="#6f7485" opacity="1.00" d=" M 22.79 115.44 C 24.17 115.49 25.56 115.54 26.94 115.47 C 27.15 115.79 27.57 116.43 27.78 116.75 C 28.74 117.91 29.79 119.01 30.92 120.01 C 31.84 119.64 32.52 117.59 33.62 118.46 C 35.76 120.18 38.53 118.88 40.98 118.94 C 40.69 120.53 38.78 122.26 40.16 123.78 C 41.81 125.60 38.28 126.56 37.03 127.26 C 36.00 125.57 34.06 122.54 31.79 123.87 C 29.98 125.26 28.17 123.11 26.47 122.53 C 27.02 119.12 23.94 117.92 22.79 115.44 Z" />
</g>
<g id="#626676ff">
<path fill="#626676" opacity="1.00" d=" M 53.14 116.96 C 55.19 117.54 57.62 118.19 59.01 119.86 C 56.80 120.93 54.25 121.63 52.85 123.83 C 50.71 127.79 43.86 126.07 42.97 131.01 C 44.08 133.70 47.36 134.65 49.79 135.90 C 49.51 133.28 50.81 132.97 52.95 133.94 C 52.15 135.47 51.19 136.91 50.05 138.20 C 49.79 138.46 49.27 138.98 49.01 139.23 C 46.48 137.98 43.88 136.88 41.35 135.65 C 43.57 129.73 38.70 129.74 35.12 129.07 C 33.63 129.69 32.85 133.20 30.96 131.39 C 33.29 130.26 32.20 127.93 32.05 125.93 C 33.80 125.98 35.43 126.62 37.03 127.26 C 37.63 127.95 38.29 128.58 39.00 129.15 C 42.42 126.46 45.25 122.04 50.04 122.11 C 52.97 122.33 51.52 118.48 53.14 116.96 Z" />
</g>
<g id="#4d515eff">
<path fill="#4d515e" opacity="1.00" d=" M 8.03 126.12 C 11.69 124.49 13.21 120.36 16.78 118.77 C 17.62 119.45 18.44 120.17 19.23 120.91 C 19.96 124.85 17.51 127.69 16.24 130.98 C 17.23 134.54 17.30 139.09 20.89 141.14 C 21.22 139.62 21.87 136.58 22.20 135.05 C 24.82 137.50 27.55 139.83 30.90 141.19 C 31.04 142.47 31.07 143.74 30.99 145.03 C 25.01 145.06 19.40 140.34 13.53 140.96 C 11.49 136.10 9.29 131.26 8.03 126.12 Z" />
</g>
<g id="#5c5f6fff">
<path fill="#5c5f6f" opacity="1.00" d=" M 16.78 118.77 C 19.90 118.92 23.92 119.67 24.57 123.35 C 25.36 126.93 27.64 129.81 30.96 131.39 C 32.85 133.20 33.63 129.69 35.12 129.07 C 38.70 129.74 43.57 129.73 41.35 135.65 C 43.88 136.88 46.48 137.98 49.01 139.23 C 45.60 141.40 47.24 146.95 51.21 147.07 C 51.60 148.04 51.75 149.03 51.67 150.05 C 44.99 149.85 42.49 141.80 36.57 139.54 C 33.92 138.84 33.22 136.06 31.78 134.08 C 30.54 134.24 29.53 135.05 28.38 135.49 C 26.29 133.29 24.00 131.26 22.22 128.78 C 20.17 126.63 21.14 123.10 19.23 120.91 C 18.44 120.17 17.62 119.45 16.78 118.77 Z" />
</g>
<g id="#535764ff">
<path fill="#535764" opacity="1.00" d=" M 19.23 120.91 C 21.14 123.10 20.17 126.63 22.22 128.78 C 24.00 131.26 26.29 133.29 28.38 135.49 C 29.53 135.05 30.54 134.24 31.78 134.08 C 33.22 136.06 33.92 138.84 36.57 139.54 C 42.49 141.80 44.99 149.85 51.67 150.05 C 50.08 152.93 53.50 153.57 53.99 155.97 C 49.18 156.70 45.81 152.36 41.34 152.67 C 39.32 152.53 37.26 152.63 35.33 151.92 C 31.81 148.21 26.69 146.69 22.24 144.39 C 20.67 145.63 19.15 146.92 17.61 148.19 C 16.20 145.81 14.61 143.52 13.53 140.96 C 19.40 140.34 25.01 145.06 30.99 145.03 C 31.07 143.74 31.04 142.47 30.90 141.19 C 27.55 139.83 24.82 137.50 22.20 135.05 C 21.87 136.58 21.22 139.62 20.89 141.14 C 17.30 139.09 17.23 134.54 16.24 130.98 C 17.51 127.69 19.96 124.85 19.23 120.91 Z" />
</g>
<g id="#454952ff">
<path fill="#454952" opacity="1.00" d=" M 86.17 135.07 C 91.14 132.94 91.63 138.57 94.89 140.12 C 96.43 139.27 96.04 136.82 97.77 135.99 C 97.60 139.95 100.09 145.17 104.76 143.18 C 108.66 145.24 105.65 148.49 103.76 150.82 C 102.32 151.12 101.29 149.62 100.04 149.14 C 99.47 152.14 98.77 155.11 98.02 158.08 C 97.31 158.94 96.59 159.85 95.47 160.17 C 93.01 154.13 85.73 158.71 81.21 159.28 C 80.00 156.89 77.78 154.75 78.14 151.86 C 82.86 153.17 87.01 149.83 87.09 145.04 C 87.44 142.96 85.23 142.65 83.88 141.84 C 83.90 139.39 84.53 136.95 86.17 135.07 Z" />
</g>
<g id="#051425fc">
<path fill="#051425" opacity="1.00" d=" M 178.11 137.02 C 181.57 136.43 179.52 142.25 182.03 143.03 C 183.79 142.27 185.17 139.19 187.28 140.63 C 180.69 157.53 167.40 171.62 152.07 181.04 C 150.74 181.06 149.41 181.06 148.09 181.05 C 149.99 178.82 150.60 175.86 152.42 173.56 C 155.50 162.29 166.69 156.20 172.53 146.61 C 176.63 145.17 176.38 140.26 178.11 137.02 Z" />
</g>
<g id="#35393fff">
<path fill="#35393f" opacity="1.00" d=" M 108.12 142.18 C 110.86 140.94 113.88 140.73 116.80 140.15 C 119.11 140.56 121.38 140.25 123.74 140.29 C 124.43 142.23 125.28 144.32 123.99 146.22 C 121.78 143.75 120.71 147.43 119.32 148.86 C 118.47 146.29 117.11 144.01 114.91 142.36 C 113.27 142.57 111.64 142.89 110.02 143.21 C 108.89 146.66 114.27 147.57 113.52 150.68 C 112.31 154.68 117.79 156.05 120.34 158.04 C 119.17 159.38 115.71 159.41 116.48 161.70 C 117.66 165.04 113.65 166.43 111.13 167.14 C 109.67 171.03 115.90 168.48 118.20 169.63 C 117.30 170.35 116.47 171.14 115.70 172.00 C 117.85 174.09 120.83 176.22 123.41 173.47 C 127.23 171.94 124.45 177.56 126.76 178.81 C 122.67 178.75 121.66 182.82 118.76 184.76 C 116.26 186.66 114.07 189.25 110.93 190.10 C 111.15 188.72 110.93 186.96 112.69 186.65 C 117.18 184.94 117.26 178.31 122.22 177.20 C 118.58 176.99 114.97 176.53 111.39 175.81 C 110.95 174.17 110.74 172.44 109.92 170.92 C 109.22 171.50 108.55 172.11 107.91 172.75 C 105.41 173.71 103.81 171.75 103.37 169.49 C 104.25 168.84 104.83 167.98 105.11 166.93 C 102.69 166.58 101.85 169.14 100.60 170.66 C 99.65 170.29 98.75 169.81 97.85 169.35 C 100.25 167.84 97.64 167.93 96.21 167.71 C 95.00 167.36 92.58 166.66 91.37 166.31 C 91.76 165.51 94.49 164.73 93.14 163.95 C 91.44 163.34 92.31 162.18 93.04 161.15 C 93.65 160.90 94.86 160.41 95.47 160.17 C 96.59 159.85 97.31 158.94 98.02 158.08 C 98.46 157.84 99.33 157.37 99.76 157.14 C 100.62 160.16 101.19 163.41 103.17 165.95 C 104.34 166.20 105.21 165.81 105.79 164.78 C 106.60 163.06 102.84 161.75 105.36 160.22 C 106.82 158.40 108.47 156.74 109.89 154.89 C 109.38 150.64 108.30 146.47 108.12 142.18 Z" />
</g>
<g id="#4d505cff">
<path fill="#4d505c" opacity="1.00" d=" M 48.92 141.00 C 53.92 139.17 57.15 143.28 60.87 144.96 C 62.39 141.99 64.52 144.70 66.32 145.99 C 64.66 147.04 62.64 147.59 61.30 149.10 C 61.63 151.76 62.96 154.40 62.17 157.07 C 59.53 157.05 56.89 156.98 54.25 156.86 L 53.99 155.97 C 53.50 153.57 50.08 152.93 51.67 150.05 C 51.75 149.03 51.60 148.04 51.21 147.07 C 50.79 144.92 49.67 143.03 48.92 141.00 Z" />
</g>
<g id="#5f656eff">
<path fill="#5f656e" opacity="1.00" d=" M 82.10 142.20 C 82.54 142.11 83.43 141.93 83.88 141.84 C 85.23 142.65 87.44 142.96 87.09 145.04 C 84.85 145.84 82.36 147.43 80.09 145.82 C 79.56 144.09 80.51 142.77 82.10 142.20 Z" />
</g>
<g id="#30333aff">
<path fill="#30333a" opacity="1.00" d=" M 110.02 143.21 C 111.64 142.89 113.27 142.57 114.91 142.36 C 117.11 144.01 118.47 146.29 119.32 148.86 C 120.71 147.43 121.78 143.75 123.99 146.22 C 123.81 148.56 126.50 147.75 127.98 148.26 C 128.52 151.08 125.25 152.47 124.86 155.08 C 123.30 157.46 127.85 160.44 124.78 162.16 C 121.98 164.26 122.15 168.72 118.20 169.63 C 115.90 168.48 109.67 171.03 111.13 167.14 C 113.65 166.43 117.66 165.04 116.48 161.70 C 115.71 159.41 119.17 159.38 120.34 158.04 C 117.79 156.05 112.31 154.68 113.52 150.68 C 114.27 147.57 108.89 146.66 110.02 143.21 Z" />
</g>
<g id="#5f6470ff">
<path fill="#5f6470" opacity="1.00" d=" M 22.24 144.39 C 26.69 146.69 31.81 148.21 35.33 151.92 C 34.40 153.16 34.03 155.28 32.08 155.10 C 30.38 153.38 29.17 151.00 26.69 150.29 C 22.57 147.44 22.06 151.19 20.69 153.20 C 19.39 151.71 18.46 149.96 17.61 148.19 C 19.15 146.92 20.67 145.63 22.24 144.39 Z" />
</g>
<g id="#6a707dff">
<path fill="#6a707d" opacity="1.00" d=" M 20.69 153.20 C 22.06 151.19 22.57 147.44 26.69 150.29 C 29.17 151.00 30.38 153.38 32.08 155.10 C 34.03 155.28 34.40 153.16 35.33 151.92 C 37.26 152.63 39.32 152.53 41.34 152.67 L 41.43 153.80 C 40.11 154.77 38.40 154.00 36.91 154.14 C 38.25 156.24 38.86 158.10 36.84 159.96 C 38.22 159.70 39.56 159.31 40.93 159.00 C 39.83 160.35 38.90 161.92 40.05 163.58 C 44.69 162.23 50.07 167.53 50.04 172.09 C 47.21 171.68 45.17 169.49 42.67 168.31 C 39.23 166.36 37.81 169.35 35.87 170.98 C 29.70 166.13 25.50 159.28 20.69 153.20 Z" />
</g>
<g id="#626772ff">
<path fill="#626772" opacity="1.00" d=" M 69.18 152.14 C 72.30 153.47 75.32 150.21 78.14 151.86 C 76.38 152.72 72.88 152.82 74.25 155.64 C 76.54 156.91 78.81 158.23 81.21 159.28 C 79.67 159.46 76.59 159.81 75.05 159.99 C 75.21 159.57 75.53 158.74 75.69 158.32 C 73.28 157.25 71.29 155.58 69.29 153.91 C 69.27 153.46 69.21 152.58 69.18 152.14 Z" />
</g>
<g id="#5f646fff">
<path fill="#5f646f" opacity="1.00" d=" M 41.34 152.67 C 45.81 152.36 49.18 156.70 53.99 155.97 L 54.25 156.86 C 53.89 157.12 53.18 157.66 52.83 157.93 C 50.96 157.50 49.10 157.07 47.21 156.73 C 45.37 155.59 43.61 154.21 41.43 153.80 L 41.34 152.67 Z" />
</g>
<g id="#535761ff">
<path fill="#535761" opacity="1.00" d=" M 74.25 155.64 C 72.88 152.82 76.38 152.72 78.14 151.86 C 77.78 154.75 80.00 156.89 81.21 159.28 C 78.81 158.23 76.54 156.91 74.25 155.64 Z" />
</g>
<g id="#767d86ff">
<path fill="#767d86" opacity="1.00" d=" M 36.91 154.14 C 38.40 154.00 40.11 154.77 41.43 153.80 C 43.61 154.21 45.37 155.59 47.21 156.73 C 45.77 156.84 44.32 156.97 42.88 157.15 C 44.36 161.02 46.71 164.76 50.81 166.20 C 56.23 169.91 51.53 178.40 45.76 178.47 C 42.17 176.39 39.07 173.59 35.87 170.98 C 37.81 169.35 39.23 166.36 42.67 168.31 C 45.17 169.49 47.21 171.68 50.04 172.09 C 50.07 167.53 44.69 162.23 40.05 163.58 C 38.90 161.92 39.83 160.35 40.93 159.00 C 39.56 159.31 38.22 159.70 36.84 159.96 C 38.86 158.10 38.25 156.24 36.91 154.14 Z" />
</g>
<g id="#737b84ff">
<path fill="#737b84" opacity="1.00" d=" M 69.29 153.91 C 71.29 155.58 73.28 157.25 75.69 158.32 C 75.53 158.74 75.21 159.57 75.05 159.99 C 73.99 160.67 72.98 161.41 71.94 162.12 C 71.29 159.98 69.74 158.46 67.80 157.42 C 63.05 159.02 57.68 159.17 52.83 157.93 C 53.18 157.66 53.89 157.12 54.25 156.86 C 56.89 156.98 59.53 157.05 62.17 157.07 C 64.69 156.39 67.03 155.17 69.29 153.91 Z" />
</g>
<g id="#848b91ff">
<path fill="#848b91" opacity="1.00" d=" M 42.88 157.15 C 44.32 156.97 45.77 156.84 47.21 156.73 C 49.10 157.07 50.96 157.50 52.83 157.93 C 57.68 159.17 63.05 159.02 67.80 157.42 C 69.74 158.46 71.29 159.98 71.94 162.12 C 72.05 164.35 74.30 165.15 75.95 166.10 C 76.22 166.59 76.76 167.57 77.03 168.06 C 73.59 168.01 70.25 167.18 66.82 167.02 C 67.78 168.08 68.89 169.01 69.97 169.94 C 71.32 171.52 74.66 173.20 71.19 174.46 C 72.91 178.21 78.03 177.68 79.88 181.15 C 82.29 183.33 79.40 186.15 77.74 187.81 C 73.08 188.04 68.41 187.96 63.75 188.24 C 57.15 186.23 51.42 182.31 45.76 178.47 C 51.53 178.40 56.23 169.91 50.81 166.20 C 46.71 164.76 44.36 161.02 42.88 157.15 M 56.21 173.15 C 53.60 175.17 54.12 180.24 57.31 181.60 C 59.97 182.32 62.01 184.73 65.00 184.05 C 72.66 187.41 69.36 182.92 69.10 180.30 C 72.27 179.79 70.36 175.41 67.73 175.30 C 63.73 175.33 59.89 174.19 56.21 173.15 Z" />
</g>
<g id="#51565eff">
<path fill="#51565e" opacity="1.00" d=" M 81.21 159.28 C 85.73 158.71 93.01 154.13 95.47 160.17 C 94.86 160.41 93.65 160.90 93.04 161.15 C 91.07 160.44 88.89 159.58 87.00 161.00 C 84.63 162.67 81.88 161.27 79.31 161.11 C 78.76 162.80 78.24 164.51 77.69 166.21 C 77.26 166.18 76.38 166.13 75.95 166.10 C 74.30 165.15 72.05 164.35 71.94 162.12 C 72.98 161.41 73.99 160.67 75.05 159.99 C 76.59 159.81 79.67 159.46 81.21 159.28 Z" />
</g>
<g id="#464b52ff">
<path fill="#464b52" opacity="1.00" d=" M 87.00 161.00 C 88.89 159.58 91.07 160.44 93.04 161.15 C 92.31 162.18 91.44 163.34 93.14 163.95 C 94.49 164.73 91.76 165.51 91.37 166.31 C 92.58 166.66 95.00 167.36 96.21 167.71 C 94.88 167.88 93.56 168.06 92.24 168.28 C 87.30 168.05 82.74 165.65 77.69 166.21 C 78.24 164.51 78.76 162.80 79.31 161.11 C 81.88 161.27 84.63 162.67 87.00 161.00 Z" />
</g>
<g id="#2c2f33ff">
<path fill="#2c2f33" opacity="1.00" d=" M 118.20 169.63 C 122.15 168.72 121.98 164.26 124.78 162.16 C 125.72 163.59 127.24 163.51 128.75 163.36 C 130.71 165.88 130.45 168.91 130.08 171.87 C 130.50 172.00 131.35 172.26 131.78 172.39 C 132.83 173.16 136.46 171.47 134.51 173.51 C 130.61 175.42 128.38 179.59 129.00 184.01 C 128.76 184.23 128.27 184.67 128.02 184.89 C 123.55 182.00 120.45 186.88 117.66 189.64 C 114.08 191.45 110.26 192.75 106.79 194.78 C 105.14 195.00 103.46 194.93 101.81 194.92 C 104.69 193.03 107.62 191.15 110.93 190.10 C 114.07 189.25 116.26 186.66 118.76 184.76 C 121.66 182.82 122.67 178.75 126.76 178.81 C 124.45 177.56 127.23 171.94 123.41 173.47 C 120.83 176.22 117.85 174.09 115.70 172.00 C 116.47 171.14 117.30 170.35 118.20 169.63 Z" />
</g>
<g id="#676c73ff">
<path fill="#676c73" opacity="1.00" d=" M 75.95 166.10 C 76.38 166.13 77.26 166.18 77.69 166.21 C 82.74 165.65 87.30 168.05 92.24 168.28 C 90.37 171.06 83.80 167.91 85.66 172.22 C 83.87 171.06 82.21 169.71 80.54 168.40 C 78.27 168.73 79.25 171.64 78.89 173.22 C 75.84 172.33 73.06 170.71 69.97 169.94 C 68.89 169.01 67.78 168.08 66.82 167.02 C 70.25 167.18 73.59 168.01 77.03 168.06 C 76.76 167.57 76.22 166.59 75.95 166.10 Z" />
</g>
<g id="#44484eff">
<path fill="#44484e" opacity="1.00" d=" M 100.60 170.66 C 101.85 169.14 102.69 166.58 105.11 166.93 C 104.83 167.98 104.25 168.84 103.37 169.49 C 103.81 171.75 105.41 173.71 107.91 172.75 C 108.28 174.98 109.03 177.05 110.16 178.97 C 112.24 179.02 115.40 176.89 116.11 180.00 C 115.05 182.33 112.63 183.56 110.38 184.50 C 109.27 186.00 109.10 187.88 108.62 189.62 C 104.51 190.15 101.26 192.82 97.81 194.87 C 97.06 194.88 95.56 194.89 94.81 194.89 C 97.99 192.84 101.28 190.95 104.34 188.73 C 104.54 185.57 106.62 182.79 109.99 182.66 C 108.65 181.86 106.07 177.41 105.81 180.75 C 104.10 179.09 102.07 177.80 99.78 177.12 C 95.64 176.70 95.61 172.26 95.04 169.07 C 95.74 169.14 97.15 169.28 97.85 169.35 C 98.75 169.81 99.65 170.29 100.60 170.66 Z" />
</g>
<g id="#585d63ff">
<path fill="#585d63" opacity="1.00" d=" M 78.89 173.22 C 79.25 171.64 78.27 168.73 80.54 168.40 C 82.21 169.71 83.87 171.06 85.66 172.22 C 83.80 167.91 90.37 171.06 92.24 168.28 C 93.56 168.06 94.88 167.88 96.21 167.71 C 97.64 167.93 100.25 167.84 97.85 169.35 C 97.15 169.28 95.74 169.14 95.04 169.07 C 95.61 172.26 95.64 176.70 99.78 177.12 C 98.35 179.36 101.48 179.43 102.85 180.32 C 101.97 188.97 93.38 195.41 84.76 194.40 C 83.09 194.10 81.41 193.83 79.76 193.40 C 84.93 193.84 88.92 190.35 93.80 189.67 C 93.55 185.54 94.49 180.16 90.59 177.51 C 90.67 174.87 89.48 171.11 85.07 174.35 C 82.93 174.65 80.90 173.80 78.89 173.22 Z" />
</g>
<g id="#757b7fff">
<path fill="#757b7f" opacity="1.00" d=" M 69.97 169.94 C 73.06 170.71 75.84 172.33 78.89 173.22 C 79.05 173.93 77.33 176.43 78.94 175.77 C 82.99 174.11 86.07 177.60 88.38 180.41 C 88.04 182.18 87.65 183.94 87.53 185.75 C 85.11 190.20 79.84 190.46 75.67 192.27 C 71.64 191.10 67.62 189.88 63.75 188.24 C 68.41 187.96 73.08 188.04 77.74 187.81 C 79.40 186.15 82.29 183.33 79.88 181.15 C 78.03 177.68 72.91 178.21 71.19 174.46 C 74.66 173.20 71.32 171.52 69.97 169.94 Z" />
</g>
<g id="#3d4145ff">
<path fill="#3d4145" opacity="1.00" d=" M 107.91 172.75 C 108.55 172.11 109.22 171.50 109.92 170.92 C 110.74 172.44 110.95 174.17 111.39 175.81 C 114.97 176.53 118.58 176.99 122.22 177.20 C 117.26 178.31 117.18 184.94 112.69 186.65 C 110.93 186.96 111.15 188.72 110.93 190.10 C 107.62 191.15 104.69 193.03 101.81 194.92 C 100.47 194.92 99.14 194.90 97.81 194.87 C 101.26 192.82 104.51 190.15 108.62 189.62 C 109.10 187.88 109.27 186.00 110.38 184.50 C 112.63 183.56 115.05 182.33 116.11 180.00 C 115.40 176.89 112.24 179.02 110.16 178.97 C 109.03 177.05 108.28 174.98 107.91 172.75 Z" />
</g>
<g id="#949a9eff">
<path fill="#949a9e" opacity="1.00" d=" M 56.21 173.15 C 59.89 174.19 63.73 175.33 67.73 175.30 C 70.36 175.41 72.27 179.79 69.10 180.30 C 69.36 182.92 72.66 187.41 65.00 184.05 C 62.01 184.73 59.97 182.32 57.31 181.60 C 54.12 180.24 53.60 175.17 56.21 173.15 Z" />
</g>
<g id="#696e72ff">
<path fill="#696e72" opacity="1.00" d=" M 78.89 173.22 C 80.90 173.80 82.93 174.65 85.07 174.35 C 89.48 171.11 90.67 174.87 90.59 177.51 C 94.49 180.16 93.55 185.54 93.80 189.67 C 88.92 190.35 84.93 193.84 79.76 193.40 C 78.39 193.07 77.02 192.71 75.67 192.27 C 79.84 190.46 85.11 190.20 87.53 185.75 C 87.65 183.94 88.04 182.18 88.38 180.41 C 86.07 177.60 82.99 174.11 78.94 175.77 C 77.33 176.43 79.05 173.93 78.89 173.22 Z" />
</g>
<g id="#4c5155ff">
<path fill="#4c5155" opacity="1.00" d=" M 99.78 177.12 C 102.07 177.80 104.10 179.09 105.81 180.75 C 106.07 177.41 108.65 181.86 109.99 182.66 C 106.62 182.79 104.54 185.57 104.34 188.73 C 101.28 190.95 97.99 192.84 94.81 194.89 C 92.86 194.98 90.90 195.04 88.94 195.09 C 87.54 194.91 86.14 194.70 84.76 194.40 C 93.38 195.41 101.97 188.97 102.85 180.32 C 101.48 179.43 98.35 179.36 99.78 177.12 Z" />
</g>
<g id="#1e2125ff">
<path fill="#1e2125" opacity="1.00" d=" M 117.66 189.64 C 120.45 186.88 123.55 182.00 128.02 184.89 C 126.99 185.87 125.91 186.80 124.86 187.77 C 119.68 191.81 113.31 194.11 106.79 194.78 C 110.26 192.75 114.08 191.45 117.66 189.64 Z" />
</g>
<g id="#06090cf7">
<path fill="#06090c" opacity="0.97" d=" M 106.79 194.78 C 113.31 194.11 119.68 191.81 124.86 187.77 C 125.66 187.86 127.25 188.03 128.04 188.12 C 128.26 190.15 126.13 190.79 124.91 191.94 C 125.70 191.96 127.26 192.01 128.04 192.03 L 127.83 192.85 C 121.57 193.97 115.40 195.80 109.01 196.01 C 102.67 196.01 96.33 195.95 89.99 196.03 L 89.03 196.02 L 88.94 195.09 C 90.90 195.04 92.86 194.98 94.81 194.89 C 95.56 194.89 97.06 194.88 97.81 194.87 C 99.14 194.90 100.47 194.92 101.81 194.92 C 103.46 194.93 105.14 195.00 106.79 194.78 Z" />
</g>
<g id="#2727278f">
<path fill="#272727" opacity="0.56" d=" M 89.99 196.03 C 96.33 195.95 102.67 196.01 109.01 196.01 L 108.99 196.98 C 102.67 196.98 96.35 197.15 90.03 196.96 L 89.99 196.03 Z" />
</g>
</svg>
